<?xml version="1.0" encoding="utf-8" standalone="no"?>
<!DOCTYPE svg PUBLIC "-//W3C//DTD SVG 1.1//EN"
  "http://www.w3.org/Graphics/SVG/1.1/DTD/svg11.dtd">
<!-- Created with matplotlib (https://matplotlib.org/) -->
<svg height="297.36pt" version="1.1" viewBox="0 0 1209.6 297.36" width="1209.6pt" xmlns="http://www.w3.org/2000/svg" xmlns:xlink="http://www.w3.org/1999/xlink">
 <defs>
  <style type="text/css">
*{stroke-linecap:butt;stroke-linejoin:round;}
  </style>
 </defs>
 <g id="figure_1">
  <g id="patch_1">
   <path d="M 0 297.36 
L 1209.6 297.36 
L 1209.6 0 
L 0 0 
z
" style="fill:#ffffff;"/>
  </g>
  <g id="axes_1">
   <g id="patch_2">
    <path d="M 151.2 264.6504 
L 1088.64 264.6504 
L 1088.64 35.6832 
L 151.2 35.6832 
z
" style="fill:#ffffff;"/>
   </g>
   <g id="matplotlib.axis_1">
    <g id="xtick_1">
     <g id="line2d_1">
      <defs>
       <path d="M 0 0 
L 0 3.5 
" id="mf8ce7cec3e" style="stroke:#000000;stroke-width:0.8;"/>
      </defs>
      <g>
       <use style="stroke:#000000;stroke-width:0.8;" x="193.810909" xlink:href="#mf8ce7cec3e" y="264.6504"/>
      </g>
     </g>
     <g id="text_1">
      <!-- 0 -->
      <defs>
       <path d="M 31.78125 66.40625 
Q 24.171875 66.40625 20.328125 58.90625 
Q 16.5 51.421875 16.5 36.375 
Q 16.5 21.390625 20.328125 13.890625 
Q 24.171875 6.390625 31.78125 6.390625 
Q 39.453125 6.390625 43.28125 13.890625 
Q 47.125 21.390625 47.125 36.375 
Q 47.125 51.421875 43.28125 58.90625 
Q 39.453125 66.40625 31.78125 66.40625 
z
M 31.78125 74.21875 
Q 44.046875 74.21875 50.515625 64.515625 
Q 56.984375 54.828125 56.984375 36.375 
Q 56.984375 17.96875 50.515625 8.265625 
Q 44.046875 -1.421875 31.78125 -1.421875 
Q 19.53125 -1.421875 13.0625 8.265625 
Q 6.59375 17.96875 6.59375 36.375 
Q 6.59375 54.828125 13.0625 64.515625 
Q 19.53125 74.21875 31.78125 74.21875 
z
" id="DejaVuSans-48"/>
      </defs>
      <g transform="translate(190.629659 279.248838)scale(0.1 -0.1)">
       <use xlink:href="#DejaVuSans-48"/>
      </g>
     </g>
    </g>
    <g id="xtick_2">
     <g id="line2d_2">
      <g>
       <use style="stroke:#000000;stroke-width:0.8;" x="335.847273" xlink:href="#mf8ce7cec3e" y="264.6504"/>
      </g>
     </g>
     <g id="text_2">
      <!-- 5 -->
      <defs>
       <path d="M 10.796875 72.90625 
L 49.515625 72.90625 
L 49.515625 64.59375 
L 19.828125 64.59375 
L 19.828125 46.734375 
Q 21.96875 47.46875 24.109375 47.828125 
Q 26.265625 48.1875 28.421875 48.1875 
Q 40.625 48.1875 47.75 41.5 
Q 54.890625 34.8125 54.890625 23.390625 
Q 54.890625 11.625 47.5625 5.09375 
Q 40.234375 -1.421875 26.90625 -1.421875 
Q 22.3125 -1.421875 17.546875 -0.640625 
Q 12.796875 0.140625 7.71875 1.703125 
L 7.71875 11.625 
Q 12.109375 9.234375 16.796875 8.0625 
Q 21.484375 6.890625 26.703125 6.890625 
Q 35.15625 6.890625 40.078125 11.328125 
Q 45.015625 15.765625 45.015625 23.390625 
Q 45.015625 31 40.078125 35.4375 
Q 35.15625 39.890625 26.703125 39.890625 
Q 22.75 39.890625 18.8125 39.015625 
Q 14.890625 38.140625 10.796875 36.28125 
z
" id="DejaVuSans-53"/>
      </defs>
      <g transform="translate(332.666023 279.248838)scale(0.1 -0.1)">
       <use xlink:href="#DejaVuSans-53"/>
      </g>
     </g>
    </g>
    <g id="xtick_3">
     <g id="line2d_3">
      <g>
       <use style="stroke:#000000;stroke-width:0.8;" x="477.883636" xlink:href="#mf8ce7cec3e" y="264.6504"/>
      </g>
     </g>
     <g id="text_3">
      <!-- 10 -->
      <defs>
       <path d="M 12.40625 8.296875 
L 28.515625 8.296875 
L 28.515625 63.921875 
L 10.984375 60.40625 
L 10.984375 69.390625 
L 28.421875 72.90625 
L 38.28125 72.90625 
L 38.28125 8.296875 
L 54.390625 8.296875 
L 54.390625 0 
L 12.40625 0 
z
" id="DejaVuSans-49"/>
      </defs>
      <g transform="translate(471.521136 279.248838)scale(0.1 -0.1)">
       <use xlink:href="#DejaVuSans-49"/>
       <use x="63.623047" xlink:href="#DejaVuSans-48"/>
      </g>
     </g>
    </g>
    <g id="xtick_4">
     <g id="line2d_4">
      <g>
       <use style="stroke:#000000;stroke-width:0.8;" x="619.92" xlink:href="#mf8ce7cec3e" y="264.6504"/>
      </g>
     </g>
     <g id="text_4">
      <!-- 15 -->
      <g transform="translate(613.5575 279.248838)scale(0.1 -0.1)">
       <use xlink:href="#DejaVuSans-49"/>
       <use x="63.623047" xlink:href="#DejaVuSans-53"/>
      </g>
     </g>
    </g>
    <g id="xtick_5">
     <g id="line2d_5">
      <g>
       <use style="stroke:#000000;stroke-width:0.8;" x="761.956364" xlink:href="#mf8ce7cec3e" y="264.6504"/>
      </g>
     </g>
     <g id="text_5">
      <!-- 20 -->
      <defs>
       <path d="M 19.1875 8.296875 
L 53.609375 8.296875 
L 53.609375 0 
L 7.328125 0 
L 7.328125 8.296875 
Q 12.9375 14.109375 22.625 23.890625 
Q 32.328125 33.6875 34.8125 36.53125 
Q 39.546875 41.84375 41.421875 45.53125 
Q 43.3125 49.21875 43.3125 52.78125 
Q 43.3125 58.59375 39.234375 62.25 
Q 35.15625 65.921875 28.609375 65.921875 
Q 23.96875 65.921875 18.8125 64.3125 
Q 13.671875 62.703125 7.8125 59.421875 
L 7.8125 69.390625 
Q 13.765625 71.78125 18.9375 73 
Q 24.125 74.21875 28.421875 74.21875 
Q 39.75 74.21875 46.484375 68.546875 
Q 53.21875 62.890625 53.21875 53.421875 
Q 53.21875 48.921875 51.53125 44.890625 
Q 49.859375 40.875 45.40625 35.40625 
Q 44.1875 33.984375 37.640625 27.21875 
Q 31.109375 20.453125 19.1875 8.296875 
z
" id="DejaVuSans-50"/>
      </defs>
      <g transform="translate(755.593864 279.248838)scale(0.1 -0.1)">
       <use xlink:href="#DejaVuSans-50"/>
       <use x="63.623047" xlink:href="#DejaVuSans-48"/>
      </g>
     </g>
    </g>
    <g id="xtick_6">
     <g id="line2d_6">
      <g>
       <use style="stroke:#000000;stroke-width:0.8;" x="903.992727" xlink:href="#mf8ce7cec3e" y="264.6504"/>
      </g>
     </g>
     <g id="text_6">
      <!-- 25 -->
      <g transform="translate(897.630227 279.248838)scale(0.1 -0.1)">
       <use xlink:href="#DejaVuSans-50"/>
       <use x="63.623047" xlink:href="#DejaVuSans-53"/>
      </g>
     </g>
    </g>
    <g id="xtick_7">
     <g id="line2d_7">
      <g>
       <use style="stroke:#000000;stroke-width:0.8;" x="1046.029091" xlink:href="#mf8ce7cec3e" y="264.6504"/>
      </g>
     </g>
     <g id="text_7">
      <!-- 30 -->
      <defs>
       <path d="M 40.578125 39.3125 
Q 47.65625 37.796875 51.625 33 
Q 55.609375 28.21875 55.609375 21.1875 
Q 55.609375 10.40625 48.1875 4.484375 
Q 40.765625 -1.421875 27.09375 -1.421875 
Q 22.515625 -1.421875 17.65625 -0.515625 
Q 12.796875 0.390625 7.625 2.203125 
L 7.625 11.71875 
Q 11.71875 9.328125 16.59375 8.109375 
Q 21.484375 6.890625 26.8125 6.890625 
Q 36.078125 6.890625 40.9375 10.546875 
Q 45.796875 14.203125 45.796875 21.1875 
Q 45.796875 27.640625 41.28125 31.265625 
Q 36.765625 34.90625 28.71875 34.90625 
L 20.21875 34.90625 
L 20.21875 43.015625 
L 29.109375 43.015625 
Q 36.375 43.015625 40.234375 45.921875 
Q 44.09375 48.828125 44.09375 54.296875 
Q 44.09375 59.90625 40.109375 62.90625 
Q 36.140625 65.921875 28.71875 65.921875 
Q 24.65625 65.921875 20.015625 65.03125 
Q 15.375 64.15625 9.8125 62.3125 
L 9.8125 71.09375 
Q 15.4375 72.65625 20.34375 73.4375 
Q 25.25 74.21875 29.59375 74.21875 
Q 40.828125 74.21875 47.359375 69.109375 
Q 53.90625 64.015625 53.90625 55.328125 
Q 53.90625 49.265625 50.4375 45.09375 
Q 46.96875 40.921875 40.578125 39.3125 
z
" id="DejaVuSans-51"/>
      </defs>
      <g transform="translate(1039.666591 279.248838)scale(0.1 -0.1)">
       <use xlink:href="#DejaVuSans-51"/>
       <use x="63.623047" xlink:href="#DejaVuSans-48"/>
      </g>
     </g>
    </g>
    <g id="text_8">
     <!-- Time, [s] -->
     <defs>
      <path d="M -0.296875 72.90625 
L 61.375 72.90625 
L 61.375 64.59375 
L 35.5 64.59375 
L 35.5 0 
L 25.59375 0 
L 25.59375 64.59375 
L -0.296875 64.59375 
z
" id="DejaVuSans-84"/>
      <path d="M 9.421875 54.6875 
L 18.40625 54.6875 
L 18.40625 0 
L 9.421875 0 
z
M 9.421875 75.984375 
L 18.40625 75.984375 
L 18.40625 64.59375 
L 9.421875 64.59375 
z
" id="DejaVuSans-105"/>
      <path d="M 52 44.1875 
Q 55.375 50.25 60.0625 53.125 
Q 64.75 56 71.09375 56 
Q 79.640625 56 84.28125 50.015625 
Q 88.921875 44.046875 88.921875 33.015625 
L 88.921875 0 
L 79.890625 0 
L 79.890625 32.71875 
Q 79.890625 40.578125 77.09375 44.375 
Q 74.3125 48.1875 68.609375 48.1875 
Q 61.625 48.1875 57.5625 43.546875 
Q 53.515625 38.921875 53.515625 30.90625 
L 53.515625 0 
L 44.484375 0 
L 44.484375 32.71875 
Q 44.484375 40.625 41.703125 44.40625 
Q 38.921875 48.1875 33.109375 48.1875 
Q 26.21875 48.1875 22.15625 43.53125 
Q 18.109375 38.875 18.109375 30.90625 
L 18.109375 0 
L 9.078125 0 
L 9.078125 54.6875 
L 18.109375 54.6875 
L 18.109375 46.1875 
Q 21.1875 51.21875 25.484375 53.609375 
Q 29.78125 56 35.6875 56 
Q 41.65625 56 45.828125 52.96875 
Q 50 49.953125 52 44.1875 
z
" id="DejaVuSans-109"/>
      <path d="M 56.203125 29.59375 
L 56.203125 25.203125 
L 14.890625 25.203125 
Q 15.484375 15.921875 20.484375 11.0625 
Q 25.484375 6.203125 34.421875 6.203125 
Q 39.59375 6.203125 44.453125 7.46875 
Q 49.3125 8.734375 54.109375 11.28125 
L 54.109375 2.78125 
Q 49.265625 0.734375 44.1875 -0.34375 
Q 39.109375 -1.421875 33.890625 -1.421875 
Q 20.796875 -1.421875 13.15625 6.1875 
Q 5.515625 13.8125 5.515625 26.8125 
Q 5.515625 40.234375 12.765625 48.109375 
Q 20.015625 56 32.328125 56 
Q 43.359375 56 49.78125 48.890625 
Q 56.203125 41.796875 56.203125 29.59375 
z
M 47.21875 32.234375 
Q 47.125 39.59375 43.09375 43.984375 
Q 39.0625 48.390625 32.421875 48.390625 
Q 24.90625 48.390625 20.390625 44.140625 
Q 15.875 39.890625 15.1875 32.171875 
z
" id="DejaVuSans-101"/>
      <path d="M 11.71875 12.40625 
L 22.015625 12.40625 
L 22.015625 4 
L 14.015625 -11.625 
L 7.71875 -11.625 
L 11.71875 4 
z
" id="DejaVuSans-44"/>
      <path id="DejaVuSans-32"/>
      <path d="M 8.59375 75.984375 
L 29.296875 75.984375 
L 29.296875 69 
L 17.578125 69 
L 17.578125 -6.203125 
L 29.296875 -6.203125 
L 29.296875 -13.1875 
L 8.59375 -13.1875 
z
" id="DejaVuSans-91"/>
      <path d="M 44.28125 53.078125 
L 44.28125 44.578125 
Q 40.484375 46.53125 36.375 47.5 
Q 32.28125 48.484375 27.875 48.484375 
Q 21.1875 48.484375 17.84375 46.4375 
Q 14.5 44.390625 14.5 40.28125 
Q 14.5 37.15625 16.890625 35.375 
Q 19.28125 33.59375 26.515625 31.984375 
L 29.59375 31.296875 
Q 39.15625 29.25 43.1875 25.515625 
Q 47.21875 21.78125 47.21875 15.09375 
Q 47.21875 7.46875 41.1875 3.015625 
Q 35.15625 -1.421875 24.609375 -1.421875 
Q 20.21875 -1.421875 15.453125 -0.5625 
Q 10.6875 0.296875 5.421875 2 
L 5.421875 11.28125 
Q 10.40625 8.6875 15.234375 7.390625 
Q 20.0625 6.109375 24.8125 6.109375 
Q 31.15625 6.109375 34.5625 8.28125 
Q 37.984375 10.453125 37.984375 14.40625 
Q 37.984375 18.0625 35.515625 20.015625 
Q 33.0625 21.96875 24.703125 23.78125 
L 21.578125 24.515625 
Q 13.234375 26.265625 9.515625 29.90625 
Q 5.8125 33.546875 5.8125 39.890625 
Q 5.8125 47.609375 11.28125 51.796875 
Q 16.75 56 26.8125 56 
Q 31.78125 56 36.171875 55.265625 
Q 40.578125 54.546875 44.28125 53.078125 
z
" id="DejaVuSans-115"/>
      <path d="M 30.421875 75.984375 
L 30.421875 -13.1875 
L 9.71875 -13.1875 
L 9.71875 -6.203125 
L 21.390625 -6.203125 
L 21.390625 69 
L 9.71875 69 
L 9.71875 75.984375 
z
" id="DejaVuSans-93"/>
     </defs>
     <g transform="translate(597.848125 292.926963)scale(0.1 -0.1)">
      <use xlink:href="#DejaVuSans-84"/>
      <use x="61.037109" xlink:href="#DejaVuSans-105"/>
      <use x="88.820312" xlink:href="#DejaVuSans-109"/>
      <use x="186.232422" xlink:href="#DejaVuSans-101"/>
      <use x="247.755859" xlink:href="#DejaVuSans-44"/>
      <use x="279.542969" xlink:href="#DejaVuSans-32"/>
      <use x="311.330078" xlink:href="#DejaVuSans-91"/>
      <use x="350.34375" xlink:href="#DejaVuSans-115"/>
      <use x="402.443359" xlink:href="#DejaVuSans-93"/>
     </g>
    </g>
   </g>
   <g id="matplotlib.axis_2">
    <g id="ytick_1">
     <g id="line2d_8">
      <defs>
       <path d="M 0 0 
L -3.5 0 
" id="maa9ce6b47a" style="stroke:#000000;stroke-width:0.8;"/>
      </defs>
      <g>
       <use style="stroke:#000000;stroke-width:0.8;" x="151.2" xlink:href="#maa9ce6b47a" y="251.697459"/>
      </g>
     </g>
     <g id="text_9">
      <!-- −12 -->
      <defs>
       <path d="M 10.59375 35.5 
L 73.1875 35.5 
L 73.1875 27.203125 
L 10.59375 27.203125 
z
" id="DejaVuSans-8722"/>
      </defs>
      <g transform="translate(123.095313 255.496678)scale(0.1 -0.1)">
       <use xlink:href="#DejaVuSans-8722"/>
       <use x="83.789062" xlink:href="#DejaVuSans-49"/>
       <use x="147.412109" xlink:href="#DejaVuSans-50"/>
      </g>
     </g>
    </g>
    <g id="ytick_2">
     <g id="line2d_9">
      <g>
       <use style="stroke:#000000;stroke-width:0.8;" x="151.2" xlink:href="#maa9ce6b47a" y="222.437053"/>
      </g>
     </g>
     <g id="text_10">
      <!-- −10 -->
      <g transform="translate(123.095313 226.236272)scale(0.1 -0.1)">
       <use xlink:href="#DejaVuSans-8722"/>
       <use x="83.789062" xlink:href="#DejaVuSans-49"/>
       <use x="147.412109" xlink:href="#DejaVuSans-48"/>
      </g>
     </g>
    </g>
    <g id="ytick_3">
     <g id="line2d_10">
      <g>
       <use style="stroke:#000000;stroke-width:0.8;" x="151.2" xlink:href="#maa9ce6b47a" y="193.176647"/>
      </g>
     </g>
     <g id="text_11">
      <!-- −8 -->
      <defs>
       <path d="M 31.78125 34.625 
Q 24.75 34.625 20.71875 30.859375 
Q 16.703125 27.09375 16.703125 20.515625 
Q 16.703125 13.921875 20.71875 10.15625 
Q 24.75 6.390625 31.78125 6.390625 
Q 38.8125 6.390625 42.859375 10.171875 
Q 46.921875 13.96875 46.921875 20.515625 
Q 46.921875 27.09375 42.890625 30.859375 
Q 38.875 34.625 31.78125 34.625 
z
M 21.921875 38.8125 
Q 15.578125 40.375 12.03125 44.71875 
Q 8.5 49.078125 8.5 55.328125 
Q 8.5 64.0625 14.71875 69.140625 
Q 20.953125 74.21875 31.78125 74.21875 
Q 42.671875 74.21875 48.875 69.140625 
Q 55.078125 64.0625 55.078125 55.328125 
Q 55.078125 49.078125 51.53125 44.71875 
Q 48 40.375 41.703125 38.8125 
Q 48.828125 37.15625 52.796875 32.3125 
Q 56.78125 27.484375 56.78125 20.515625 
Q 56.78125 9.90625 50.3125 4.234375 
Q 43.84375 -1.421875 31.78125 -1.421875 
Q 19.734375 -1.421875 13.25 4.234375 
Q 6.78125 9.90625 6.78125 20.515625 
Q 6.78125 27.484375 10.78125 32.3125 
Q 14.796875 37.15625 21.921875 38.8125 
z
M 18.3125 54.390625 
Q 18.3125 48.734375 21.84375 45.5625 
Q 25.390625 42.390625 31.78125 42.390625 
Q 38.140625 42.390625 41.71875 45.5625 
Q 45.3125 48.734375 45.3125 54.390625 
Q 45.3125 60.0625 41.71875 63.234375 
Q 38.140625 66.40625 31.78125 66.40625 
Q 25.390625 66.40625 21.84375 63.234375 
Q 18.3125 60.0625 18.3125 54.390625 
z
" id="DejaVuSans-56"/>
      </defs>
      <g transform="translate(129.457813 196.975866)scale(0.1 -0.1)">
       <use xlink:href="#DejaVuSans-8722"/>
       <use x="83.789062" xlink:href="#DejaVuSans-56"/>
      </g>
     </g>
    </g>
    <g id="ytick_4">
     <g id="line2d_11">
      <g>
       <use style="stroke:#000000;stroke-width:0.8;" x="151.2" xlink:href="#maa9ce6b47a" y="163.916241"/>
      </g>
     </g>
     <g id="text_12">
      <!-- −6 -->
      <defs>
       <path d="M 33.015625 40.375 
Q 26.375 40.375 22.484375 35.828125 
Q 18.609375 31.296875 18.609375 23.390625 
Q 18.609375 15.53125 22.484375 10.953125 
Q 26.375 6.390625 33.015625 6.390625 
Q 39.65625 6.390625 43.53125 10.953125 
Q 47.40625 15.53125 47.40625 23.390625 
Q 47.40625 31.296875 43.53125 35.828125 
Q 39.65625 40.375 33.015625 40.375 
z
M 52.59375 71.296875 
L 52.59375 62.3125 
Q 48.875 64.0625 45.09375 64.984375 
Q 41.3125 65.921875 37.59375 65.921875 
Q 27.828125 65.921875 22.671875 59.328125 
Q 17.53125 52.734375 16.796875 39.40625 
Q 19.671875 43.65625 24.015625 45.921875 
Q 28.375 48.1875 33.59375 48.1875 
Q 44.578125 48.1875 50.953125 41.515625 
Q 57.328125 34.859375 57.328125 23.390625 
Q 57.328125 12.15625 50.6875 5.359375 
Q 44.046875 -1.421875 33.015625 -1.421875 
Q 20.359375 -1.421875 13.671875 8.265625 
Q 6.984375 17.96875 6.984375 36.375 
Q 6.984375 53.65625 15.1875 63.9375 
Q 23.390625 74.21875 37.203125 74.21875 
Q 40.921875 74.21875 44.703125 73.484375 
Q 48.484375 72.75 52.59375 71.296875 
z
" id="DejaVuSans-54"/>
      </defs>
      <g transform="translate(129.457813 167.71546)scale(0.1 -0.1)">
       <use xlink:href="#DejaVuSans-8722"/>
       <use x="83.789062" xlink:href="#DejaVuSans-54"/>
      </g>
     </g>
    </g>
    <g id="ytick_5">
     <g id="line2d_12">
      <g>
       <use style="stroke:#000000;stroke-width:0.8;" x="151.2" xlink:href="#maa9ce6b47a" y="134.655835"/>
      </g>
     </g>
     <g id="text_13">
      <!-- −4 -->
      <defs>
       <path d="M 37.796875 64.3125 
L 12.890625 25.390625 
L 37.796875 25.390625 
z
M 35.203125 72.90625 
L 47.609375 72.90625 
L 47.609375 25.390625 
L 58.015625 25.390625 
L 58.015625 17.1875 
L 47.609375 17.1875 
L 47.609375 0 
L 37.796875 0 
L 37.796875 17.1875 
L 4.890625 17.1875 
L 4.890625 26.703125 
z
" id="DejaVuSans-52"/>
      </defs>
      <g transform="translate(129.457813 138.455054)scale(0.1 -0.1)">
       <use xlink:href="#DejaVuSans-8722"/>
       <use x="83.789062" xlink:href="#DejaVuSans-52"/>
      </g>
     </g>
    </g>
    <g id="ytick_6">
     <g id="line2d_13">
      <g>
       <use style="stroke:#000000;stroke-width:0.8;" x="151.2" xlink:href="#maa9ce6b47a" y="105.395429"/>
      </g>
     </g>
     <g id="text_14">
      <!-- −2 -->
      <g transform="translate(129.457813 109.194648)scale(0.1 -0.1)">
       <use xlink:href="#DejaVuSans-8722"/>
       <use x="83.789062" xlink:href="#DejaVuSans-50"/>
      </g>
     </g>
    </g>
    <g id="ytick_7">
     <g id="line2d_14">
      <g>
       <use style="stroke:#000000;stroke-width:0.8;" x="151.2" xlink:href="#maa9ce6b47a" y="76.135023"/>
      </g>
     </g>
     <g id="text_15">
      <!-- 0 -->
      <g transform="translate(137.8375 79.934242)scale(0.1 -0.1)">
       <use xlink:href="#DejaVuSans-48"/>
      </g>
     </g>
    </g>
    <g id="ytick_8">
     <g id="line2d_15">
      <g>
       <use style="stroke:#000000;stroke-width:0.8;" x="151.2" xlink:href="#maa9ce6b47a" y="46.874617"/>
      </g>
     </g>
     <g id="text_16">
      <!-- 2 -->
      <g transform="translate(137.8375 50.673835)scale(0.1 -0.1)">
       <use xlink:href="#DejaVuSans-50"/>
      </g>
     </g>
    </g>
   </g>
   <g id="line2d_16">
    <path clip-path="url(#pdd18fb64eb)" d="M 193.810909 76.135023 
L 193.947264 76.242778 
L 194.183044 76.869298 
L 194.248381 76.800361 
L 194.319399 76.776657 
L 194.356329 76.842629 
L 194.552339 77.663326 
L 194.864819 79.611864 
L 195.441487 84.387096 
L 195.685789 86.160801 
L 195.927251 88.188175 
L 195.981225 87.95545 
L 196.191439 86.57073 
L 196.251094 86.771136 
L 196.538007 87.82024 
L 196.682884 88.152695 
L 196.827761 88.621893 
L 196.881735 88.402436 
L 197.685661 81.792196 
L 197.935645 78.368052 
L 198.537879 70.509448 
L 198.722527 70.236242 
L 198.921377 70.347432 
L 201.719494 72.692046 
L 201.830282 72.793874 
L 201.93823 74.288368 
L 202.21094 81.574588 
L 202.387065 90.942538 
L 202.637049 127.142879 
L 202.744996 117.659324 
L 203.094406 88.935542 
L 203.225079 87.238182 
L 203.262009 87.382957 
L 203.347231 89.056073 
L 203.602896 96.264751 
L 203.65687 95.84173 
L 203.77618 91.485105 
L 204.12559 79.23108 
L 204.455114 75.196488 
L 204.793161 72.377184 
L 205.048826 70.657558 
L 205.247677 70.400623 
L 205.318695 70.190494 
L 205.449369 68.819676 
L 205.699353 66.850845 
L 205.830026 66.885927 
L 206.122621 67.3534 
L 207.335612 69.333284 
L 208.432132 70.674364 
L 208.855401 71.277949 
L 209.005959 74.258866 
L 209.826929 91.944833 
L 209.82977 91.944511 
L 209.897948 91.772937 
L 210.042825 90.802797 
L 210.108161 90.454248 
L 210.162135 90.698439 
L 210.292809 91.92009 
L 210.355305 91.562593 
L 210.500182 88.526257 
L 211.358081 68.466484 
L 211.54841 67.867858 
L 211.693287 67.93737 
L 211.963156 68.397971 
L 212.136441 69.587306 
L 212.298362 70.114519 
L 212.326769 70.087144 
L 212.741516 69.457439 
L 212.781286 69.484198 
L 212.934685 69.749045 
L 213.07104 70.57869 
L 213.400564 73.091529 
L 213.448857 72.975984 
L 213.943143 71.17773 
L 214.167561 70.980983 
L 214.36073 71.167106 
L 214.525492 72.010736 
L 214.792521 73.381647 
L 214.815247 73.372069 
L 214.988531 73.391762 
L 215.130567 73.499134 
L 215.278285 73.882788 
L 215.423162 75.349869 
L 215.712916 80.985166 
L 215.897564 88.490789 
L 216.025396 105.26487 
L 216.221407 137.287417 
L 216.27254 135.290455 
L 217.187254 83.297578 
L 217.735514 70.769414 
L 218.246845 63.446777 
L 218.346271 63.527124 
L 218.604777 64.204983 
L 219.510969 66.550636 
L 220.451249 68.333585 
L 221.496637 69.850341 
L 222.627247 71.103807 
L 223.899892 72.18014 
L 225.465133 73.202544 
L 227.530342 74.275931 
L 229.547258 75.08848 
L 231.169313 75.519046 
L 231.203402 75.493596 
L 231.223287 75.593843 
L 231.299987 77.434445 
L 231.487475 87.82427 
L 231.569856 110.624555 
L 231.700529 171.554776 
L 231.768707 157.528895 
L 232.066983 99.91576 
L 232.382304 84.604593 
L 232.762961 77.234946 
L 233.012945 75.908507 
L 233.049875 75.882266 
L 233.098167 75.98111 
L 233.220319 76.784202 
L 233.433373 80.562613 
L 234.015722 93.596388 
L 234.095263 92.742915 
L 234.390698 88.134898 
L 234.438991 88.465469 
L 234.609434 90.645999 
L 234.654886 89.99861 
L 235.316775 72.829638 
L 235.776973 67.275687 
L 235.847991 67.367007 
L 235.972983 68.046154 
L 236.163312 70.783749 
L 236.649076 82.198872 
L 236.768387 91.189176 
L 236.955875 108.062222 
L 237.01553 106.345108 
L 237.421754 85.34935 
L 237.504135 87.4069 
L 237.634809 93.438826 
L 237.697305 91.994023 
L 237.975696 77.051162 
L 238.251247 69.579077 
L 238.424531 68.683243 
L 238.438735 68.688566 
L 238.506912 68.879234 
L 238.700081 69.478857 
L 238.742692 69.412856 
L 238.864844 68.786776 
L 239.08642 66.145131 
L 239.43583 61.898237 
L 239.492644 61.960193 
L 239.682973 62.563235 
L 240.535191 65.371606 
L 241.367524 67.250213 
L 242.356097 68.942963 
L 243.432733 70.354107 
L 244.605953 71.527409 
L 245.963821 72.565874 
L 247.708028 73.607027 
L 249.86414 74.635346 
L 251.761745 75.305225 
L 253.599696 75.715328 
L 254.440551 75.742587 
L 254.468959 75.742315 
L 254.497366 75.832809 
L 254.579747 76.952624 
L 254.824049 84.359504 
L 255.028582 95.954965 
L 255.184822 122.942612 
L 255.29561 144.370515 
L 255.349584 138.394117 
L 255.733082 88.605683 
L 256.000111 82.453786 
L 256.210324 81.307242 
L 256.315431 81.39475 
L 256.539849 81.850046 
L 256.5853 81.751861 
L 256.681885 80.840521 
L 257.477289 69.506883 
L 257.579555 69.823296 
L 258.088045 72.059652 
L 258.161904 71.803733 
L 258.619261 69.633612 
L 258.636305 69.640603 
L 259.008441 70.031662 
L 259.215814 71.240526 
L 259.758393 74.036658 
L 259.891907 73.924908 
L 260.070873 73.066941 
L 260.17882 72.856153 
L 260.218591 72.922855 
L 260.445849 73.37586 
L 260.477097 73.353643 
L 260.678788 73.201726 
L 260.701514 73.237892 
L 260.789577 73.726179 
L 261.23273 77.952102 
L 261.300908 77.780481 
L 261.675884 76.009491 
L 261.744061 76.180763 
L 261.880416 77.446125 
L 262.155967 82.395774 
L 262.315047 90.393748 
L 262.422995 110.051729 
L 262.573553 144.801676 
L 262.633209 139.333594 
L 262.993981 98.545953 
L 263.011025 98.678977 
L 263.116132 102.465417 
L 263.212717 109.522441 
L 263.374639 132.261263 
L 263.445657 127.103073 
L 263.985395 74.63254 
L 264.059254 73.885095 
L 264.116068 74.128759 
L 264.187087 74.526438 
L 264.246742 74.257967 
L 264.377415 71.355959 
L 264.698417 65.422893 
L 264.829091 64.988865 
L 264.871702 65.068195 
L 265.047827 65.988348 
L 265.314855 67.165896 
L 265.329059 67.160174 
L 265.439847 66.924564 
L 265.618813 66.718703 
L 265.650061 66.750031 
L 265.721079 67.076337 
L 265.928452 69.701891 
L 266.360243 78.470848 
L 266.471031 89.562274 
L 266.632953 106.191191 
L 266.684086 105.01001 
L 266.948273 89.485324 
L 267.292001 69.799323 
L 267.479489 68.069572 
L 267.524941 68.030237 
L 267.578915 68.118035 
L 267.67834 68.247476 
L 267.71527 68.157135 
L 267.843103 67.078445 
L 268.081724 63.297666 
L 268.308982 60.543685 
L 268.320345 60.547048 
L 268.402726 60.733848 
L 268.754976 62.378075 
L 269.348688 64.588941 
L 270.095799 66.497889 
L 271.033239 68.288837 
L 272.078627 69.816104 
L 273.206396 71.074916 
L 274.47336 72.153771 
L 276.030079 73.176882 
L 278.083924 74.250205 
L 280.112204 75.073633 
L 281.927428 75.571956 
L 283.810831 75.856807 
L 284.100585 75.937152 
L 284.205692 76.998211 
L 285.202787 93.14697 
L 285.353345 106.463187 
L 285.569241 123.8815 
L 285.614692 122.823047 
L 285.739684 117.482839 
L 285.810703 119.311592 
L 285.938535 123.839697 
L 285.998191 122.832712 
L 286.126023 114.364221 
L 286.469751 95.626756 
L 286.498159 95.779607 
L 286.566336 96.102485 
L 286.608947 95.786083 
L 286.714054 92.653772 
L 287.177092 74.2979 
L 287.429917 72.453606 
L 287.594679 72.117657 
L 287.634449 72.16254 
L 287.785008 72.72637 
L 288.117373 74.546238 
L 288.404287 78.793504 
L 288.503712 79.606116 
L 288.552004 79.41088 
L 289.600233 70.859865 
L 289.904191 66.473867 
L 290.162697 64.5567 
L 290.264963 64.634608 
L 290.554717 65.312377 
L 291.458068 67.286434 
L 291.821681 68.07477 
L 292.423916 70.895514 
L 292.503456 70.965614 
L 292.543226 70.890367 
L 292.940928 69.476478 
L 293.031831 69.65945 
L 293.33863 70.922084 
L 293.429533 70.726508 
L 293.679517 70.248726 
L 293.878368 70.366117 
L 294.156759 70.734253 
L 294.259025 71.717128 
L 294.622639 78.797886 
L 294.841375 85.455997 
L 295.230554 108.854217 
L 295.33282 106.297811 
L 296.148109 85.467888 
L 296.298668 82.063068 
L 296.929309 67.688491 
L 297.170771 65.809867 
L 297.253152 65.797914 
L 297.290081 65.835347 
L 297.525862 66.305609 
L 298.511594 68.253001 
L 299.537097 69.757148 
L 299.752992 70.170133 
L 299.892188 72.899285 
L 300.264323 84.618214 
L 300.397837 97.539608 
L 300.519988 108.197071 
L 300.571121 106.017171 
L 301.025638 81.013493 
L 301.832404 68.247528 
L 301.991485 67.915045 
L 302.002848 67.91803 
L 302.176132 68.097484 
L 304.261226 70.849592 
L 305.499783 71.959881 
L 306.175876 72.350675 
L 306.263939 72.433749 
L 306.354842 73.206932 
L 306.570737 77.70709 
L 307.082068 87.688953 
L 307.107635 87.709954 
L 307.150246 87.592319 
L 307.261034 86.500449 
L 307.616125 79.115428 
L 308.002464 73.647794 
L 308.096208 73.387025 
L 308.1445 73.461402 
L 308.334829 73.749211 
L 308.363236 73.727691 
L 308.527999 73.394798 
L 308.931382 71.656767 
L 308.988196 71.680496 
L 309.695537 72.226555 
L 311.417018 73.346101 
L 312.914081 74.065504 
L 312.982259 74.05725 
L 313.004985 74.13094 
L 313.095888 75.127656 
L 313.37712 81.716264 
L 313.635626 90.982842 
L 313.743574 109.441606 
L 313.908336 162.077473 
L 313.999239 149.906913 
L 314.266268 119.152488 
L 314.328764 118.926433 
L 314.368534 119.199489 
L 314.561703 122.882888 
L 314.609996 121.404413 
L 314.808847 109.172647 
L 314.882705 111.645936 
L 314.993494 119.479016 
L 315.053149 115.836157 
L 315.479258 73.186478 
L 315.567321 74.332562 
L 315.626976 75.003336 
L 315.675268 74.344231 
L 316.263299 60.854979 
L 316.297388 60.869411 
L 316.638275 61.126804 
L 316.760426 62.144914 
L 317.229146 66.180719 
L 317.328572 66.309613 
L 317.365501 66.277335 
L 317.504697 66.151253 
L 317.544467 66.214047 
L 317.75184 66.459112 
L 317.763203 66.452351 
L 317.871151 66.228874 
L 318.331348 65.029884 
L 318.356915 65.046149 
L 318.513155 65.347708 
L 319.638083 67.815323 
L 320.657904 69.419955 
L 321.760106 70.746592 
L 322.978778 71.865184 
L 324.43039 72.888115 
L 325.103642 73.177767 
L 325.17466 73.232233 
L 325.183183 73.258111 
L 325.265564 73.951101 
L 325.569521 79.564087 
L 325.984268 88.9058 
L 326.114941 104.517771 
L 326.316633 130.065206 
L 326.364925 128.001179 
L 326.850689 95.139337 
L 327.535305 75.55245 
L 327.575075 75.511055 
L 327.626208 75.624251 
L 327.739837 76.507171 
L 328.106291 79.494008 
L 328.114813 79.491282 
L 328.182991 79.310962 
L 328.557967 77.194813 
L 328.665914 76.780639 
L 328.722729 76.900479 
L 328.998279 78.396866 
L 329.344848 80.261352 
L 329.381777 80.19853 
L 329.481203 79.399251 
L 329.839135 74.085453 
L 330.404439 65.898964 
L 330.415802 65.900733 
L 330.557839 66.054954 
L 331.162913 67.262742 
L 332.16569 68.972968 
L 333.242326 70.377046 
L 334.418387 71.547394 
L 335.64274 72.464161 
L 335.958061 72.737392 
L 336.122823 74.467452 
L 336.435303 77.078966 
L 336.58018 78.940757 
L 336.932431 86.763147 
L 337.16537 96.548345 
L 337.318769 106.030882 
L 337.384106 105.323207 
L 337.537505 103.176554 
L 337.580116 103.482904 
L 337.679542 106.92434 
L 337.770445 110.144983 
L 337.82726 108.992018 
L 337.957933 100.141696 
L 338.244847 85.434986 
L 338.409609 84.395443 
L 338.466423 84.0531 
L 338.702204 80.050934 
L 339.08002 75.064532 
L 339.261827 74.63565 
L 339.276031 74.64516 
L 339.506129 75.126653 
L 339.713503 75.270218 
L 339.815769 75.095488 
L 339.946442 74.938157 
L 339.980531 74.972995 
L 340.21063 75.299697 
L 340.256081 75.197591 
L 340.418003 74.107156 
L 340.87536 69.505067 
L 341.221929 66.83163 
L 341.349761 66.922916 
L 341.699171 67.539709 
L 341.809959 68.965501 
L 342.295724 80.377762 
L 342.392308 89.607869 
L 342.503097 132.097435 
L 342.582637 152.16861 
L 342.642292 145.779527 
L 342.912161 107.535145 
L 342.957613 108.521366 
L 343.119535 120.323391 
L 343.233164 116.324223 
L 343.329748 106.059749 
L 343.684839 68.300609 
L 343.897894 65.400225 
L 344.210374 63.679048 
L 344.38934 62.174826 
L 344.667731 58.605688 
L 344.744431 58.815656 
L 345.056911 60.86851 
L 345.56256 63.390848 
L 346.184679 65.352611 
L 347.014172 67.230661 
L 348.002745 68.928033 
L 349.07938 70.342695 
L 350.252601 71.518698 
L 351.607628 72.557238 
L 353.346153 73.597119 
L 354.35177 74.242519 
L 354.46824 76.650932 
L 354.840375 90.291618 
L 354.939801 108.539755 
L 355.081837 144.60485 
L 355.147174 139.931353 
L 355.510787 107.155601 
L 355.803382 104.238563 
L 355.985188 94.712135 
L 356.328916 80.369308 
L 356.507882 78.790279 
L 356.519245 78.796353 
L 356.573219 79.031073 
L 356.684007 80.567195 
L 356.897062 84.822139 
L 356.953876 84.547622 
L 357.107276 82.653738 
L 357.536225 76.880541 
L 357.908361 74.742482 
L 357.925405 74.733253 
L 357.965175 74.854058 
L 358.181071 76.033456 
L 358.266292 75.83522 
L 358.428214 74.538883 
L 358.635587 69.934594 
L 358.933863 64.186439 
L 359.033289 64.074226 
L 359.0759 64.106979 
L 359.266228 64.497426 
L 360.550237 67.481199 
L 361.553014 69.140352 
L 362.638172 70.51458 
L 363.828436 71.664564 
L 365.223233 72.696302 
L 367.035617 73.746857 
L 369.186048 74.741193 
L 371.052406 75.368553 
L 372.910241 75.754556 
L 375.188505 75.987424 
L 377.543468 76.025525 
L 377.577556 76.001517 
L 377.608804 76.12342 
L 377.705389 77.769611 
L 378.193994 92.003449 
L 378.813273 113.169159 
L 378.938265 129.717892 
L 379.003601 125.044758 
L 379.11439 116.779862 
L 379.171204 118.728645 
L 379.344489 128.971175 
L 379.392781 126.810675 
L 379.745031 103.478471 
L 379.77912 103.621948 
L 380.034785 106.446003 
L 380.111485 113.384948 
L 380.270566 140.435752 
L 380.333062 133.429369 
L 380.546116 96.892995 
L 380.585887 100.196632 
L 380.696675 121.977861 
L 380.750649 110.636226 
L 380.901207 60.719202 
L 380.958022 70.957702 
L 381.026199 83.052975 
L 381.080173 75.024413 
L 381.273343 47.241921 
L 381.298909 47.350093 
L 381.315953 47.246079 
L 381.38129 46.0908 
L 381.429583 47.155862 
L 381.790355 56.726383 
L 382.04318 58.699338 
L 382.048861 58.697243 
L 382.111357 58.528358 
L 382.290323 57.262395 
L 382.384067 57.656527 
L 383.361277 63.667991 
L 384.008963 65.610147 
L 384.864022 67.472172 
L 385.866799 69.133457 
L 386.951956 70.509309 
L 388.142221 71.660539 
L 389.534177 72.691333 
L 391.343721 73.741415 
L 393.494151 74.737008 
L 395.36335 75.366499 
L 397.221185 75.753402 
L 399.496608 75.986762 
L 403.101491 76.104507 
L 411.163475 76.105252 
L 411.18336 76.082887 
L 411.206086 76.204059 
L 411.282785 78.420033 
L 411.404937 88.029823 
L 411.461751 124.178933 
L 411.546973 254.2428 
L 411.626513 204.316587 
L 411.814001 134.83609 
L 411.831046 135.243784 
L 411.904905 143.923497 
L 412.007171 160.466541 
L 412.069667 154.356293 
L 412.441802 112.642703 
L 412.453165 112.75227 
L 412.498617 116.324568 
L 412.586679 127.637568 
L 412.637812 121.353882 
L 412.896319 63.401593 
L 412.964496 68.327163 
L 413.089488 81.3354 
L 413.146303 77.871805 
L 413.45026 60.443341 
L 413.654793 58.663039 
L 413.836599 58.516799 
L 413.847962 58.526382 
L 414.092265 58.921592 
L 414.174646 58.747755 
L 414.22862 58.686802 
L 414.279753 58.778394 
L 414.458719 59.077245 
L 414.492807 59.028395 
L 414.58087 58.863102 
L 414.632003 58.971272 
L 414.810969 60.063376 
L 415.353548 63.078778 
L 415.94726 65.064838 
L 416.745504 66.954796 
L 417.714192 68.687059 
L 418.776624 70.141799 
L 419.929959 71.347604 
L 421.248057 72.400056 
L 422.909882 73.430672 
L 425.043268 74.487509 
L 426.989167 75.216791 
L 428.810073 75.660441 
L 429.960567 75.758889 
L 430.744608 75.777669 
L 430.809945 76.004957 
L 430.929255 77.518702 
L 431.6508 92.377529 
L 431.872377 115.560194 
L 432.093953 142.169816 
L 432.170653 139.574879 
L 432.321212 126.356138 
L 432.488815 120.842119 
L 432.789932 113.730889 
L 433.108093 94.408831 
L 433.164908 95.614937 
L 433.244448 103.870947 
L 433.403529 122.646995 
L 433.451821 121.157639 
L 433.576813 103.953465 
L 433.801231 75.758564 
L 433.841001 77.1753 
L 433.946108 93.392544 
L 434.03417 106.210552 
L 434.088144 100.954756 
L 434.26711 70.5328 
L 434.335287 75.75334 
L 434.451757 89.653125 
L 434.511412 85.647321 
L 434.767078 62.641676 
L 434.795485 62.996532 
L 434.923318 67.52536 
L 435.000017 65.612861 
L 435.355108 55.071495 
L 435.374993 55.094696 
L 435.463056 55.622511 
L 435.695996 57.208568 
L 435.738607 57.138514 
L 435.880643 56.381389 
L 435.963024 56.759789 
L 436.928871 63.389825 
L 437.54815 65.345404 
L 438.377642 67.225312 
L 439.366215 68.92395 
L 440.44001 70.336314 
L 441.61039 71.511338 
L 442.965417 72.551561 
L 444.701101 73.591084 
L 446.854372 74.621749 
L 448.754819 75.29669 
L 450.589929 75.709919 
L 452.771607 75.961646 
L 456.078214 76.094035 
L 464.404385 76.134033 
L 465.784979 76.238995 
L 465.884404 78.505289 
L 466.157114 90.513232 
L 466.248017 111.896508 
L 466.370169 151.289526 
L 466.435505 143.425223 
L 466.72526 106.59431 
L 466.745145 106.472494 
L 466.790596 107.128197 
L 466.870137 113.133884 
L 467.023536 129.405448 
L 467.07751 126.812105 
L 467.523504 96.214438 
L 467.566115 96.064402 
L 467.608726 96.409321 
L 467.710992 100.642148 
L 467.847347 107.850697 
L 467.909843 105.8972 
L 468.347315 85.84172 
L 468.378563 86.011765 
L 468.503555 86.810955 
L 468.551847 86.519229 
L 468.631388 84.401427 
L 469.156922 69.746651 
L 469.267711 69.266621 
L 469.313162 69.284403 
L 469.423951 69.124584 
L 469.53758 69.063331 
L 469.574509 69.120735 
L 469.637005 69.203638 
L 469.688138 69.103896 
L 469.759156 69.027938 
L 469.801767 69.103355 
L 469.906874 69.926554 
L 470.080159 73.362291 
L 470.452294 85.190803 
L 470.682393 103.131933 
L 470.796022 99.958645 
L 470.98351 89.295835 
L 471.378371 65.918462 
L 471.386893 65.910405 
L 471.418141 66.049418 
L 471.528929 67.984742 
L 471.668125 74.357981 
L 471.824365 85.595056 
L 471.895383 84.331409 
L 472.168093 80.448289 
L 472.173775 80.447199 
L 472.190819 80.559845 
L 472.284563 82.803121 
L 472.341377 81.176287 
L 472.591361 68.546628 
L 472.648176 69.878895 
L 472.852708 79.174147 
L 472.929408 78.224064 
L 472.994745 77.699145 
L 473.040196 78.213893 
L 473.105533 82.685866 
L 473.273136 108.349744 
L 473.341313 100.18978 
L 473.545846 68.227667 
L 473.596979 68.319289 
L 473.608342 68.321619 
L 473.628227 68.205672 
L 473.721971 65.675688 
L 474.048655 58.415092 
L 474.111151 57.985128 
L 474.162284 58.335535 
L 474.332727 62.037318 
L 474.631004 67.227286 
L 474.676455 67.116699 
L 474.917917 65.469124 
L 475.230397 61.703805 
L 475.429248 59.813147 
L 475.454815 59.836745 
L 475.559921 60.238863 
L 476.449069 64.304957 
L 477.164932 66.223212 
L 478.079647 68.042 
L 479.110831 69.608753 
L 480.224396 70.902498 
L 481.462953 72.000117 
L 482.960016 73.02117 
L 484.942844 74.09211 
L 487.022256 74.975355 
L 488.843162 75.511087 
L 490.780538 75.842533 
L 493.328671 76.03586 
L 497.902241 76.12194 
L 511.654202 76.092251 
L 511.679769 76.070435 
L 511.705335 76.201901 
L 511.793398 78.352006 
L 512.023497 89.837373 
L 512.097356 111.141464 
L 512.225188 193.992941 
L 512.31041 171.32098 
L 512.526305 122.11486 
L 512.54335 122.480121 
L 512.620049 130.430202 
L 512.841626 152.088201 
L 512.872874 150.942121 
L 513.000707 133.739137 
L 513.230806 103.308218 
L 513.256372 103.850168 
L 513.341594 113.805498 
L 513.421135 123.298007 
L 513.48079 118.908661 
L 513.804633 70.997237 
L 513.898377 79.101471 
L 514.006324 89.567459 
L 514.063139 87.912583 
L 514.151201 76.953311 
L 514.287556 64.33881 
L 514.327327 66.933806 
L 514.458 85.392034 
L 514.531859 78.654003 
L 514.639807 69.014435 
L 514.699462 70.007266 
L 514.705143 70.030025 
L 514.733551 69.567215 
L 514.830135 62.91888 
L 515.014783 56.03979 
L 515.023305 56.054341 
L 515.094323 56.816291 
L 515.597132 62.196649 
L 515.991993 65.222089 
L 516.065852 64.990919 
L 516.281747 63.065141 
L 516.545935 60.608304 
L 516.622634 60.753911 
L 516.91807 62.121688 
L 517.517463 64.438091 
L 518.250371 66.357246 
L 519.176448 68.163013 
L 520.213313 69.708843 
L 521.33256 70.984634 
L 522.585321 72.073909 
L 524.110791 73.095889 
L 526.130548 74.169531 
L 528.184394 75.023455 
L 529.999619 75.540429 
L 531.959721 75.860332 
L 534.581712 76.045188 
L 537.144048 76.036282 
L 537.203703 76.001181 
L 537.237792 76.095145 
L 537.334377 77.095534 
L 537.717875 84.88628 
L 538.041718 92.797289 
L 538.430897 110.781417 
L 538.541686 107.96855 
L 538.626908 105.904917 
L 538.686563 106.702874 
L 538.800192 108.763566 
L 538.854166 108.33077 
L 538.996202 104.409554 
L 539.172327 99.957313 
L 539.22062 100.249503 
L 539.354134 102.555435 
L 539.413789 103.240695 
L 539.473444 102.793376 
L 539.561507 100.528978 
L 539.865465 91.769796 
L 539.947846 90.761905 
L 539.993297 91.335327 
L 540.143856 97.894079 
L 540.308618 103.147245 
L 540.35407 102.300787 
L 540.814268 83.590461 
L 540.930737 84.41447 
L 541.180721 86.022172 
L 541.226173 85.426504 
L 541.365369 79.185806 
L 541.601149 72.263104 
L 541.612512 72.285348 
L 541.694893 73.010633 
L 541.936355 76.500559 
L 542.015895 75.675038 
L 542.595404 65.386936 
L 542.865273 62.666004 
L 543.08969 60.838946 
L 543.098212 60.841378 
L 543.177753 61.014019 
L 543.649313 63.066627 
L 544.350973 65.397704 
L 545.086721 67.104562 
L 546.106543 68.879954 
L 546.646281 69.857099 
L 546.862176 72.245836 
L 547.649057 85.090971 
L 547.856431 93.725356 
L 547.964378 95.654588 
L 548.00983 95.335471 
L 548.114937 92.448494 
L 548.552409 79.836946 
L 548.759782 78.755675 
L 548.91034 78.793874 
L 549.021129 79.126388 
L 549.228502 79.60191 
L 549.475645 79.830185 
L 549.521097 79.70595 
L 550.043791 77.85833 
L 550.117649 77.995199 
L 550.421607 79.277521 
L 550.634662 81.880734 
L 550.981231 87.362356 
L 551.055089 86.775977 
L 551.262463 85.091391 
L 551.279507 85.112871 
L 551.452791 85.933548 
L 551.546535 87.451133 
L 551.634598 88.592498 
L 551.697094 88.399996 
L 551.861856 86.731588 
L 552.279443 80.055704 
L 552.34478 80.341944 
L 552.523745 82.812069 
L 552.694189 85.910723 
L 552.762367 85.108975 
L 553.341875 73.723625 
L 553.407212 73.617972 
L 553.464026 73.694374 
L 553.642992 74.044056 
L 553.685603 73.955143 
L 553.873091 72.722359 
L 554.168527 71.202578 
L 554.245226 71.293297 
L 554.509414 72.070648 
L 554.603158 71.871849 
L 554.796327 71.38489 
L 554.836097 71.428477 
L 555.006541 71.694482 
L 555.057674 71.611075 
L 555.1571 71.047111 
L 555.458217 67.20997 
L 555.74513 64.305625 
L 555.82183 64.27033 
L 555.864441 64.313903 
L 556.077495 64.810335 
L 557.060387 67.221535 
L 558.043279 68.912773 
L 559.117073 70.327767 
L 560.287453 71.504812 
L 561.639639 72.544607 
L 563.372483 73.584032 
L 565.369514 74.532699 
L 565.798464 74.725083 
L 566.468876 77.963773 
L 566.815444 83.438594 
L 567.113721 90.395368 
L 567.244394 98.543925 
L 567.679025 140.308817 
L 567.681866 140.289264 
L 567.724477 138.268098 
L 567.988665 110.585433 
L 568.099453 115.886795 
L 568.24433 119.746885 
L 568.258534 119.685094 
L 568.309667 117.864305 
L 568.494314 101.518056 
L 568.798272 80.11442 
L 569.150522 72.344737 
L 570.102166 62.155227 
L 570.207273 62.351968 
L 571.803761 66.939103 
L 572.258278 68.113785 
L 572.434403 71.558789 
L 572.820742 82.647486 
L 572.9713 98.963427 
L 573.116177 121.031854 
L 573.184355 116.74111 
L 573.451383 98.505561 
L 573.482631 98.676548 
L 573.553649 100.518676 
L 573.743978 107.574549 
L 573.795111 106.166179 
L 574.388823 79.279377 
L 574.65017 76.892983 
L 575.544999 60.864861 
L 575.584769 60.868421 
L 575.62454 60.940258 
L 575.823391 61.731476 
L 576.533572 64.509019 
L 577.275002 66.427339 
L 578.206761 68.225776 
L 579.249308 69.764227 
L 580.374236 71.032537 
L 581.632678 72.114904 
L 583.172352 73.136401 
L 585.209153 74.209934 
L 587.248796 75.048147 
L 589.06402 75.556 
L 591.038326 75.869838 
L 593.702928 76.050071 
L 596.049369 76.027952 
L 596.072095 76.018423 
L 596.100502 76.12588 
L 596.188564 77.674151 
L 596.472637 87.657654 
L 596.660125 103.823891 
L 596.833409 119.609434 
L 596.87318 118.678962 
L 597.02942 107.121523 
L 597.270881 95.05246 
L 597.273722 95.054084 
L 597.30497 95.375311 
L 597.378829 99.102621 
L 597.512343 121.514098 
L 597.739601 144.462152 
L 597.753805 144.27805 
L 597.827664 138.715987 
L 598.51512 77.816094 
L 598.725334 75.647999 
L 598.861689 74.96556 
L 598.909981 75.078887 
L 599.026451 76.298291 
L 599.321887 82.433946 
L 599.441197 81.275465 
L 599.722429 74.81353 
L 600.338867 62.130032 
L 600.500788 61.163494 
L 600.523514 61.179956 
L 600.634303 61.509262 
L 601.654124 65.260345 
L 602.472253 67.139546 
L 602.975062 68.378949 
L 603.193798 72.904209 
L 603.886935 86.305813 
L 603.909661 86.251845 
L 603.918183 86.199675 
L 604.037494 84.545915 
L 605.1539 67.880522 
L 605.295936 67.977434 
L 605.847037 68.812132 
L 606.36689 69.770085 
L 606.528812 72.187632 
L 607.122524 82.246198 
L 607.165135 82.230753 
L 607.193542 82.168035 
L 607.767369 80.362723 
L 608.077008 78.409046 
L 608.096893 78.428481 
L 608.176433 78.805071 
L 608.332673 80.860909 
L 608.457665 85.80752 
L 608.858208 112.234769 
L 608.974678 109.534754 
L 609.085466 107.147085 
L 609.145121 107.911625 
L 609.199095 108.590984 
L 609.238865 107.72581 
L 609.378061 96.294934 
L 609.664975 80.913742 
L 610.568326 62.717173 
L 610.659229 62.789641 
L 610.886487 63.445702 
L 611.752909 65.955902 
L 612.642057 67.79485 
L 613.661878 69.404272 
L 614.76408 70.734615 
L 615.979911 71.853745 
L 617.428682 72.87745 
L 619.263792 73.895365 
L 619.346173 73.995879 
L 619.428554 75.950339 
L 619.800689 92.364774 
L 620.027948 99.406418 
L 620.039311 99.378755 
L 620.104647 98.509959 
L 620.266569 91.770925 
L 620.669952 78.933014 
L 621.084698 71.548767 
L 621.272186 71.333761 
L 621.505126 71.444742 
L 624.337331 73.395325 
L 625.629862 73.990509 
L 625.663951 73.987816 
L 625.689517 74.067831 
L 625.774739 75.132355 
L 626.499124 88.418157 
L 626.553098 88.2148 
L 626.743427 86.019857 
L 627.646778 76.282536 
L 627.893921 75.210183 
L 627.942214 75.202036 
L 627.979143 75.274328 
L 628.101295 75.985143 
L 628.379686 78.946372 
L 628.66944 83.348731 
L 628.828521 89.557661 
L 629.018849 109.901395 
L 629.160886 117.96566 
L 629.189293 117.555359 
L 629.277356 111.491946 
L 629.584154 92.888368 
L 629.76312 91.606551 
L 629.814253 91.355952 
L 629.990378 88.526146 
L 630.169344 86.058738 
L 630.197751 86.152513 
L 630.263088 87.66115 
L 630.356832 96.962171 
L 630.538639 126.1643 
L 630.618179 119.351648 
L 631.027244 77.88071 
L 631.291431 69.816797 
L 631.7147 64.846317 
L 632.149331 61.756326 
L 632.206145 61.800546 
L 632.22319 61.836901 
L 632.444767 62.657411 
L 633.143585 65.044186 
L 633.94183 66.939309 
L 634.910518 68.675249 
L 635.97295 70.132765 
L 637.126285 71.340709 
L 638.441542 72.392758 
L 639.305123 72.864013 
L 639.353415 72.955373 
L 639.435796 73.953243 
L 639.694303 80.641076 
L 639.873268 89.734546 
L 639.981216 113.233493 
L 640.100527 136.253729 
L 640.15166 133.132242 
L 640.716964 83.237793 
L 641.370332 72.022333 
L 641.858937 68.235804 
L 641.8703 68.238294 
L 642.032221 68.40682 
L 643.861649 70.783858 
L 644.628646 71.423483 
L 644.702505 71.51143 
L 644.790567 72.376355 
L 645.060436 78.141721 
L 645.30758 86.435116 
L 645.438253 99.212201 
L 645.702441 133.460691 
L 645.753574 130.630246 
L 646.222294 95.570676 
L 646.699536 77.411718 
L 646.952361 75.465533 
L 647.230752 71.697743 
L 647.713676 65.013536 
L 647.736401 65.020714 
L 647.884119 65.228136 
L 650.139657 69.432726 
L 650.500429 70.082965 
L 650.767457 73.746692 
L 651.142433 77.006198 
L 651.250381 77.173929 
L 651.298673 77.117996 
L 651.508887 76.793476 
L 651.562861 76.881287 
L 651.685012 77.536196 
L 651.852615 80.142146 
L 652.443487 90.996267 
L 652.520186 90.528817 
L 652.889481 87.89485 
L 653.020154 86.377567 
L 654.153604 67.60053 
L 654.2928 67.614996 
L 654.576873 68.012721 
L 655.880767 69.926835 
L 657.017057 71.167646 
L 658.301066 72.237452 
L 659.891873 73.262358 
L 661.962764 74.324558 
L 662.246836 74.563903 
L 662.363306 76.760779 
L 662.704193 87.795484 
L 662.8093 102.924833 
L 662.957018 129.560304 
L 663.016673 125.737714 
L 663.374605 98.930695 
L 663.581978 96.626603 
L 663.888777 89.793011 
L 663.917184 89.857486 
L 663.973999 90.560239 
L 664.101831 95.975998 
L 664.317727 102.497578 
L 664.3717 102.434713 
L 664.419993 103.086528 
L 664.587596 108.836656 
L 664.658614 106.996721 
L 665.155741 85.583636 
L 665.186989 85.413235 
L 665.235281 85.871503 
L 665.448336 91.006328 
L 665.718205 97.105205 
L 665.755135 97.360422 
L 665.803427 96.834031 
L 665.9341 90.444427 
L 666.496564 66.718787 
L 666.735185 64.115255 
L 666.905629 63.856338 
L 666.982329 63.878478 
L 667.002214 63.932256 
L 667.147091 64.832081 
L 667.701033 68.648934 
L 667.803299 68.749627 
L 667.843069 68.707288 
L 667.936813 68.295614 
L 668.095894 66.097758 
L 668.388489 62.765738 
L 668.479392 62.875634 
L 668.888457 64.016481 
L 670.280413 67.44199 
L 670.368476 67.672813 
L 670.715044 69.311901 
L 670.771859 69.257221 
L 670.89401 69.205492 
L 670.922417 69.248873 
L 671.092861 69.882182 
L 671.382615 72.249398 
L 671.734865 74.816246 
L 672.138249 75.719547 
L 672.575721 77.335303 
L 672.677987 77.48866 
L 672.720598 77.414522 
L 672.879679 76.65321 
L 673.271699 73.830192 
L 673.712012 69.935879 
L 673.780189 70.04494 
L 673.993244 71.173626 
L 674.086988 71.330437 
L 674.129599 71.2873 
L 674.231865 71.196152 
L 674.274476 71.249446 
L 674.638089 71.65831 
L 674.76024 72.004772 
L 674.913639 73.550962 
L 675.748813 82.064007 
L 675.799946 82.081844 
L 675.839716 82.002441 
L 676.015841 81.643742 
L 676.064134 81.675288 
L 676.197648 81.685095 
L 676.217533 81.636104 
L 676.683412 79.939095 
L 676.848175 78.487103 
L 677.129407 72.996083 
L 677.379391 70.119608 
L 677.538471 69.984673 
L 677.544153 69.986801 
L 677.794137 70.208491 
L 679.225863 71.638132 
L 680.612138 72.670281 
L 682.410319 73.718699 
L 682.967101 74.123898 
L 683.063686 76.796229 
L 683.251174 88.242602 
L 683.336396 113.138437 
L 683.458547 181.077564 
L 683.535247 164.801644 
L 683.793753 119.667776 
L 684.384624 93.304255 
L 684.538023 90.300233 
L 684.591997 90.676324 
L 684.68006 92.962285 
L 684.805052 96.628617 
L 684.859025 96.229522 
L 684.952769 92.793714 
L 685.287975 81.513052 
L 685.293657 81.515199 
L 685.339108 81.794066 
L 685.390241 82.136405 
L 685.444215 81.735756 
L 685.560685 78.11591 
L 685.898732 69.516268 
L 686.733905 61.326192 
L 686.75095 61.334037 
L 686.850375 61.577155 
L 688.279261 66.245173 
L 689.193975 68.058617 
L 690.228 69.625232 
L 691.341565 70.915078 
L 692.074473 71.794128 
L 692.242076 74.452893 
L 692.798858 82.819689 
L 692.872717 82.986817 
L 692.926691 82.885489 
L 693.068727 82.046106 
L 693.608465 78.606362 
L 693.793113 76.914139 
L 694.273196 71.06296 
L 694.452161 71.072054 
L 694.918041 71.451934 
L 696.332723 72.545146 
L 698.065567 73.58446 
L 700.218838 74.616588 
L 702.122125 75.293955 
L 703.957235 75.708333 
L 706.136073 75.960714 
L 706.428668 76.073808 
L 706.539456 78.148349 
L 706.783759 86.719087 
L 706.880343 98.572096 
L 707.039424 153.934621 
L 707.144531 136.420086 
L 707.377471 108.37091 
L 707.380311 108.365739 
L 707.397356 108.523921 
L 707.468374 111.999588 
L 707.582003 120.142662 
L 707.644499 117.652884 
L 707.823465 109.773138 
L 707.871757 110.265959 
L 707.942775 115.328899 
L 708.121741 130.648727 
L 708.167193 127.795496 
L 708.732497 76.341251 
L 708.885897 74.210994 
L 708.914304 74.257212 
L 708.996685 74.962974 
L 709.113155 78.192984 
L 709.380183 86.695113 
L 709.422794 86.183515 
L 709.596079 79.338209 
L 709.922762 72.592622 
L 710.297738 67.874151 
L 710.380119 67.67158 
L 710.436934 67.742059 
L 710.621581 68.409975 
L 710.780662 68.989343 
L 710.828954 68.851194 
L 710.970991 67.445349 
L 711.43687 62.854225 
L 711.519251 62.783213 
L 711.564703 62.827193 
L 711.74935 63.281806 
L 711.939679 64.77328 
L 712.223751 66.412857 
L 712.289088 66.477714 
L 712.33738 66.409209 
L 712.740764 65.784767 
L 712.879959 65.926865 
L 713.257776 66.754556 
L 713.811718 67.945849 
L 714.794609 69.472318 
L 715.899652 70.789556 
L 716.311558 71.366454 
L 716.442231 74.384553 
L 716.714941 85.930879 
L 716.831411 104.771567 
L 716.987651 144.070531 
L 717.058669 137.880064 
L 717.527389 89.633837 
L 717.734762 86.433899 
L 717.865436 85.550076 
L 718.044401 81.570174 
L 718.575617 69.898838 
L 719.081267 64.98425 
L 719.101152 64.991719 
L 719.240348 65.213528 
L 720.862403 68.51319 
L 721.916313 69.998217 
L 722.285607 70.608417 
L 722.424803 72.849693 
L 722.771372 82.521619 
L 722.910567 93.411633 
L 723.092374 127.83726 
L 723.186118 118.955935 
L 723.396332 104.038771 
L 723.407695 104.066742 
L 723.509961 104.99528 
L 723.572457 104.445151 
L 723.671882 100.848244 
L 723.953114 91.299399 
L 724.038336 89.636109 
L 725.086564 64.940987 
L 725.293937 63.784647 
L 725.379159 63.873557 
L 725.711524 64.790481 
L 726.538176 66.806726 
L 727.498342 68.560744 
L 728.552252 70.033328 
L 728.824961 70.520768 
L 729.611843 77.643754 
L 729.807853 78.032936 
L 729.941367 79.055639 
L 730.259529 83.677503 
L 730.449857 89.271524 
L 730.557805 91.431997 
L 730.606097 91.066825 
L 730.750975 87.400812 
L 731.066295 81.098097 
L 731.304916 78.876432 
L 732.040665 68.872838 
L 732.199745 68.955673 
L 732.733802 69.642869 
L 733.872934 70.953002 
L 734.375743 71.60807 
L 734.688223 74.528561 
L 735.256368 81.288635 
L 735.415449 85.58178 
L 735.512033 96.048269 
L 735.696681 136.950891 
L 735.784743 126.915738 
L 736.065975 96.941218 
L 736.068816 96.937435 
L 736.088701 97.063003 
L 736.173923 99.398287 
L 736.315959 104.136191 
L 736.372774 103.008882 
L 736.798883 88.085385 
L 736.886945 88.656423 
L 736.963645 90.193182 
L 737.054548 91.888815 
L 737.102841 90.97093 
L 737.338621 79.550672 
L 737.716438 67.44604 
L 738.040281 62.621456 
L 738.097095 62.594257 
L 738.145388 62.653058 
L 738.352761 63.247799 
L 739.24759 65.893514 
L 740.131056 67.73757 
L 741.148036 69.356527 
L 742.233194 70.676108 
L 743.054164 71.359587 
L 743.454707 71.793536 
L 743.610947 72.96736 
L 743.875135 76.989185 
L 744.176252 83.802021 
L 744.28704 92.731606 
L 744.383625 127.547319 
L 744.491572 168.383641 
L 744.551228 159.156743 
L 744.826778 116.815182 
L 745.250047 94.086444 
L 745.372198 91.05854 
L 746.107946 65.0958 
L 746.372134 62.502259 
L 746.454515 62.609102 
L 746.752791 63.58386 
L 747.499903 65.77751 
L 747.99703 67.280224 
L 748.198721 72.349546 
L 748.525405 85.061208 
L 748.798115 112.678207 
L 748.89754 108.055612 
L 749.178772 91.058573 
L 749.499775 75.428647 
L 749.968495 64.985814 
L 750.14746 64.114849 
L 750.252567 64.221239 
L 750.562207 65.002279 
L 751.425788 67.0304 
L 751.613276 67.631887 
L 751.766675 71.638775 
L 752.241076 84.744386 
L 752.292209 84.485018 
L 752.596167 80.351735 
L 753.596103 67.681211 
L 753.615988 67.685448 
L 753.794954 67.863131 
L 756.166961 70.999028 
L 757.422563 72.08709 
L 758.953715 73.109579 
L 760.979153 74.183159 
L 763.030159 75.03247 
L 764.845383 75.546126 
L 766.811167 75.86388 
L 769.106474 76.008895 
L 769.160448 75.962442 
L 769.186015 76.067354 
L 769.274077 77.596466 
L 769.487132 85.809875 
L 769.583716 98.212975 
L 769.751319 169.492997 
L 769.867789 145.938274 
L 770.103569 115.164933 
L 770.134817 114.692584 
L 770.177428 116.111243 
L 770.353553 125.913107 
L 770.447297 125.641503 
L 770.498431 125.990993 
L 770.532519 125.430753 
L 770.683078 115.919663 
L 771.222816 74.051815 
L 771.540977 71.008376 
L 771.611996 70.884574 
L 771.66881 70.956776 
L 771.808006 71.451273 
L 772.083556 72.26653 
L 772.268204 72.620802 
L 772.376151 72.860726 
L 772.415921 72.786949 
L 772.52671 71.875731 
L 772.890323 68.529839 
L 772.941456 68.580744 
L 773.026678 68.94185 
L 773.606186 72.265083 
L 773.62039 72.258423 
L 773.813559 71.919999 
L 773.955596 71.110226 
L 774.427156 67.685943 
L 774.5209 67.965689 
L 774.688503 69.44981 
L 775.171427 73.757286 
L 775.196993 73.744363 
L 775.256649 73.730418 
L 775.287897 73.805929 
L 775.665713 74.952291 
L 775.705484 74.88952 
L 775.867405 74.290845 
L 775.938423 74.471896 
L 776.128752 75.920948 
L 776.358851 77.45494 
L 776.409984 77.370833 
L 776.733827 76.081823 
L 776.912793 73.883124 
L 777.424124 67.748523 
L 777.620134 66.964675 
L 777.745126 67.019902 
L 778.219527 67.960729 
L 778.847328 69.02099 
L 779.915441 70.404545 
L 780.276214 70.967165 
L 780.421091 73.903733 
L 780.773341 85.678703 
L 780.867085 99.951518 
L 781.023325 140.415615 
L 781.088662 133.76539 
L 781.494886 84.611899 
L 781.818729 73.835873 
L 782.230634 66.740771 
L 782.36983 66.484571 
L 782.392556 66.492776 
L 782.56584 66.711907 
L 784.247551 69.360739 
L 784.375383 69.599972 
L 784.503216 70.760477 
L 784.844103 73.735785 
L 785.091247 74.922358 
L 786.147997 81.81028 
L 786.358211 83.855435 
L 786.378096 83.83477 
L 786.460477 83.421749 
L 786.849657 81.447913 
L 786.968967 81.291081 
L 787.520068 79.081501 
L 788.096736 73.716798 
L 788.400694 71.099664 
L 788.483075 71.184187 
L 788.602385 71.710028 
L 788.758625 73.424957 
L 789.062583 76.114789 
L 789.3637 77.193675 
L 789.522781 79.955959 
L 789.653455 86.728268 
L 789.758561 108.516757 
L 789.886394 143.036308 
L 789.946049 136.896421 
L 790.275574 100.236698 
L 790.826675 80.770186 
L 791.048252 76.32175 
L 791.062455 76.34732 
L 791.156199 77.108085 
L 791.261306 77.609397 
L 791.312439 77.503763 
L 791.440272 76.62987 
L 791.749911 71.859872 
L 792.204428 66.425827 
L 792.278287 66.332919 
L 792.326579 66.399327 
L 792.494182 67.058555 
L 792.95438 69.731694 
L 793.42594 73.987256 
L 793.54241 74.066609 
L 793.567977 74.050301 
L 793.661721 74.021579 
L 793.695809 74.083382 
L 793.792394 74.583622 
L 793.925908 76.853818 
L 794.056582 83.638187 
L 794.272477 102.627092 
L 794.349177 99.799936 
L 794.809375 79.191479 
L 795.30082 67.97575 
L 795.712726 62.566377 
L 795.746815 62.585733 
L 795.88601 62.899077 
L 797.277967 66.773989 
L 798.235292 68.531283 
L 799.292042 70.015763 
L 800.434015 71.240892 
L 801.729386 72.301906 
L 803.348601 73.329304 
L 805.45642 74.396082 
L 807.433567 75.161843 
L 809.248791 75.626275 
L 811.299796 75.912243 
L 814.200179 76.071272 
L 818.904423 76.093022 
L 818.947034 76.055643 
L 818.972601 76.170476 
L 819.066345 78.002012 
L 819.421436 90.619864 
L 819.51518 101.986978 
L 819.696986 151.674272 
L 819.793571 139.590236 
L 820.117414 102.34721 
L 820.245247 99.159998 
L 820.279335 99.507315 
L 820.347513 103.71446 
L 820.603178 132.706487 
L 820.6884 127.005935 
L 821.267908 84.918396 
L 821.304838 85.301883 
L 821.384378 89.565016 
L 821.498007 96.312585 
L 821.554822 94.815644 
L 821.915594 73.554582 
L 822.159897 65.542048 
L 822.1741 65.539259 
L 822.202508 65.644444 
L 822.284889 66.950081 
L 822.685431 77.264239 
L 822.770653 76.337359 
L 822.889964 75.097531 
L 822.932575 75.360297 
L 823.009274 77.913396 
L 823.205284 95.94515 
L 823.270621 98.144047 
L 823.324595 96.61708 
L 823.691049 80.885489 
L 823.762067 81.459818 
L 823.784793 81.550035 
L 823.841607 81.246517 
L 823.861492 81.165186 
L 823.904103 81.533326 
L 823.958077 85.268138 
L 824.080228 107.896087 
L 824.154087 97.116947 
L 824.426797 57.608174 
L 824.435319 57.584451 
L 824.460886 57.94925 
L 824.580196 62.206905 
L 824.668259 60.778026 
L 824.875632 58.278906 
L 824.918243 58.384248 
L 825.100049 59.904952 
L 825.699443 63.320191 
L 825.753417 63.254739 
L 826.054534 62.393718 
L 826.276111 61.81934 
L 826.307359 61.835174 
L 826.423828 62.066547 
L 826.955044 63.932081 
L 827.966343 66.783326 
L 828.909465 68.516558 
L 829.963375 70.001009 
L 831.105347 71.229631 
L 832.400719 72.293259 
L 834.014252 73.319268 
L 836.119231 74.386852 
L 838.099217 75.156168 
L 839.914442 75.622823 
L 841.962607 75.910319 
L 844.851626 76.070371 
L 848.976362 76.07824 
L 849.018973 76.041314 
L 849.04738 76.156932 
L 849.135443 77.817752 
L 849.456445 89.054364 
L 849.555871 101.040658 
L 849.717792 150.485689 
L 849.817217 138.196555 
L 850.081405 113.227452 
L 850.135379 111.892543 
L 850.192193 113.110715 
L 850.379681 122.395015 
L 850.507514 121.169007 
L 850.524559 121.26284 
L 850.555807 120.627405 
L 850.680799 109.926565 
L 850.848401 100.116213 
L 850.888172 100.947649 
L 850.967712 109.327982 
L 851.081341 123.249357 
L 851.143837 120.194582 
L 851.450636 105.453054 
L 851.484724 105.825021 
L 851.564265 108.764638 
L 851.606876 106.347447 
L 851.996055 75.186601 
L 852.067073 71.77983 
L 852.13241 73.277072 
L 852.177862 74.014271 
L 852.226154 72.884286 
L 852.376713 62.756961 
L 852.564201 56.973252 
L 852.572723 56.987392 
L 852.621015 57.678749 
L 852.765892 63.422373 
L 852.907929 68.272283 
L 852.956221 67.855591 
L 853.410737 62.505207 
L 853.456189 62.575028 
L 853.919228 64.288244 
L 854.118079 65.353623 
L 854.172052 65.241749 
L 854.316929 64.178923 
L 854.572595 62.146079 
L 854.618047 62.189328 
L 854.78849 62.705432 
L 855.666275 65.52055 
L 856.515652 67.394258 
L 857.512748 69.065636 
L 858.595065 70.454307 
L 859.779648 71.613718 
L 861.160241 72.647668 
L 862.947059 73.69472 
L 865.10033 74.702159 
L 866.978051 75.345254 
L 868.827364 75.740079 
L 871.071539 75.979108 
L 873.454909 76.028403 
L 873.480476 76.006671 
L 873.508883 76.128946 
L 873.599786 78.003581 
L 873.815681 87.174199 
L 873.898063 102.284842 
L 874.048621 179.624066 
L 874.148047 156.43442 
L 874.346897 118.703034 
L 874.372464 119.483088 
L 874.437801 131.604424 
L 874.540067 150.686894 
L 874.599722 146.380021 
L 874.897999 119.082199 
L 875.250249 94.49106 
L 875.56841 71.336656 
L 875.824076 64.971142 
L 876.38654 59.299287 
L 876.457558 59.477089 
L 876.758675 61.227842 
L 877.295572 63.703905 
L 877.94894 65.648625 
L 878.80968 67.511705 
L 879.812457 69.163679 
L 880.900455 70.535541 
L 882.093561 71.682963 
L 883.119063 72.400529 
L 883.195763 72.421273 
L 883.209967 72.475518 
L 883.292348 73.430668 
L 883.783793 84.736589 
L 884.101955 89.910874 
L 884.212743 90.506142 
L 884.275239 90.108879 
L 885.934224 71.486423 
L 886.317722 70.317508 
L 886.493847 70.38377 
L 886.749513 70.667033 
L 886.865983 71.25489 
L 887.053471 73.874743 
L 888.053407 89.452828 
L 888.135788 88.980151 
L 888.368727 85.555699 
L 889.451044 69.151438 
L 889.621488 69.148286 
L 889.885676 69.452084 
L 890.147023 70.000776 
L 890.286218 71.760687 
L 890.843001 82.181558 
L 890.950948 89.412219 
L 891.07594 117.619054 
L 891.183888 138.116584 
L 891.235021 133.203884 
L 891.666812 80.585618 
L 891.945203 73.660478 
L 892.527552 66.206693 
L 892.550278 66.212588 
L 892.709359 66.405365 
L 895.05864 70.175222 
L 896.214816 71.375706 
L 897.538595 72.425646 
L 898.666364 73.080004 
L 898.708975 73.077915 
L 898.734541 73.161367 
L 898.816922 74.192287 
L 899.058384 81.041919 
L 899.291324 93.390657 
L 899.5129 104.122649 
L 899.535626 103.920605 
L 899.6663 100.447333 
L 899.734477 99.640548 
L 899.78561 100.248468 
L 899.950372 106.503473 
L 900.126497 114.676963 
L 900.17479 113.817353 
L 900.282737 106.550611 
L 900.598058 87.815539 
L 900.853724 83.449081 
L 901.163363 78.477579 
L 901.379258 76.65285 
L 901.438913 76.600355 
L 901.484365 76.689181 
L 901.640605 77.635608 
L 901.958767 79.34045 
L 901.97297 79.33327 
L 902.01274 79.339139 
L 902.043988 79.410021 
L 902.143414 80.126208 
L 902.248521 83.219246 
L 902.413283 96.764111 
L 902.583727 113.959219 
L 902.6377 112.012835 
L 903.038243 90.990217 
L 903.072332 91.458526 
L 903.18312 97.68902 
L 903.274023 101.81219 
L 903.330838 101.149568 
L 903.413219 96.827424 
L 903.558096 89.093529 
L 903.61207 90.607616 
L 903.717177 94.632945 
L 903.762628 92.546961 
L 904.23703 60.668159 
L 904.407473 57.02021 
L 904.467129 57.010918 
L 904.495536 57.083811 
L 904.597802 58.043583 
L 904.930167 61.079492 
L 905.01823 61.21249 
L 905.066522 61.140625 
L 905.191514 60.531952 
L 905.387524 59.347545 
L 905.45002 59.484322 
L 905.680119 60.848265 
L 906.214176 63.47008 
L 906.844817 65.428902 
L 907.682832 67.304086 
L 908.674246 68.988365 
L 909.753722 70.392046 
L 910.929783 71.558846 
L 912.296173 72.595853 
L 914.054583 73.638446 
L 916.210695 74.659755 
L 918.099779 75.319533 
L 919.94057 75.724031 
L 922.150656 75.969872 
L 925.548166 76.097596 
L 929.479732 76.052479 
L 929.542228 76.01329 
L 929.576317 76.10672 
L 929.670061 77.169144 
L 929.931408 83.302513 
L 930.101852 91.49125 
L 930.187073 111.303094 
L 930.323428 169.092238 
L 930.400128 156.250253 
L 930.68136 112.872749 
L 930.723971 112.236457 
L 930.775104 113.24975 
L 930.874529 122.17553 
L 931.059177 130.551715 
L 931.076221 130.644714 
L 931.113151 130.030946 
L 931.215417 122.073327 
L 931.559145 95.512949 
L 931.678455 91.741991 
L 931.729588 92.772075 
L 931.846058 96.796906 
L 931.905713 95.723001 
L 932.385796 82.872495 
L 932.408522 82.991051 
L 932.493744 84.620215 
L 932.621577 88.820185 
L 932.692595 88.737939 
L 932.723843 88.889374 
L 932.749409 88.993266 
L 932.797702 88.58581 
L 932.863039 84.951989 
L 933.1812 64.091404 
L 933.215289 64.335574 
L 933.314714 67.93718 
L 933.49368 75.473015 
L 933.576061 74.67221 
L 933.593105 74.75441 
L 933.666964 75.931286 
L 933.723779 75.054917 
L 933.931152 72.660644 
L 933.970922 72.77327 
L 933.985126 72.801836 
L 934.016374 72.543901 
L 934.112959 69.058664 
L 934.343057 63.405376 
L 934.345898 63.406366 
L 934.408394 63.589019 
L 934.772007 64.939409 
L 934.879955 64.853009 
L 935.010628 64.571134 
L 935.195276 63.274584 
L 935.496393 60.211786 
L 935.592977 60.445725 
L 937.081519 65.952032 
L 937.970666 67.792005 
L 938.990487 69.402096 
L 940.092689 70.732953 
L 941.308521 71.852475 
L 942.757292 72.876462 
L 944.66626 73.940037 
L 946.785443 74.876234 
L 948.620553 75.450242 
L 950.518159 75.805222 
L 952.935617 76.015737 
L 953.72818 75.94693 
L 953.782154 75.936025 
L 953.813402 76.011038 
L 953.901465 76.80277 
L 954.120201 81.36843 
L 954.324733 89.779669 
L 954.441203 109.632464 
L 954.605965 142.241027 
L 954.66278 138.796573 
L 955.069004 108.185795 
L 955.282058 104.775953 
L 956.117232 72.453616 
L 956.531978 66.533532 
L 956.659811 66.548998 
L 956.665492 66.554616 
L 956.932521 66.986021 
L 958.205167 69.151032 
L 958.634116 69.95676 
L 958.838649 73.529478 
L 959.46929 88.014077 
L 959.747681 98.805323 
L 959.835744 97.65465 
L 959.946532 95.481624 
L 960.006188 96.494004 
L 960.185153 107.083007 
L 960.273216 110.101073 
L 960.324349 108.865815 
L 960.460704 104.569748 
L 960.5232 105.354932 
L 960.625466 106.955554 
L 960.693644 106.653932 
L 960.750458 107.000828 
L 960.807273 107.485651 
L 960.864087 107.029867 
L 961.125434 105.098262 
L 961.156682 105.226026 
L 961.18793 105.350468 
L 961.219178 104.99537 
L 961.312922 99.987629 
L 961.838457 68.382283 
L 962.261725 64.084183 
L 963.011677 60.237366 
L 963.065651 60.300043 
L 963.241776 60.95322 
L 963.656522 63.302955 
L 964.162172 70.975425 
L 964.440563 78.523986 
L 964.713273 93.724233 
L 964.809857 91.009749 
L 965.36664 73.436525 
L 965.767183 69.317573 
L 966.369417 65.128921 
L 966.454639 65.026807 
L 966.502931 65.069355 
L 966.721667 65.541373 
L 967.636381 67.5372 
L 968.641999 69.187285 
L 969.724316 70.54495 
L 971.113431 71.854581 
L 972.562202 72.878118 
L 974.471171 73.941361 
L 976.590353 74.877232 
L 978.425463 75.450897 
L 979.243593 75.539436 
L 979.272 75.53868 
L 979.297567 75.621785 
L 979.379948 76.750755 
L 979.848668 88.646887 
L 979.990704 96.639396 
L 980.274777 129.081406 
L 980.382724 125.128938 
L 980.681001 106.781984 
L 980.720771 107.422844 
L 980.828719 115.734225 
L 980.9111 118.912678 
L 980.967914 117.651163 
L 981.206535 103.04694 
L 981.510493 88.927548 
L 981.533219 89.043191 
L 981.592874 91.058329 
L 981.808769 105.94936 
L 981.908195 103.049294 
L 982.3968 85.735073 
L 982.402481 85.738321 
L 982.430889 86.032554 
L 982.516111 90.214132 
L 982.700758 104.54795 
L 982.768935 101.515748 
L 983.055849 85.634383 
L 983.226292 80.45315 
L 983.354125 80.973213 
L 983.368329 80.872093 
L 983.419462 77.935815 
L 983.774553 53.863169 
L 983.780234 53.865102 
L 983.822845 54.082098 
L 984.203503 57.374237 
L 984.268839 57.06678 
L 984.373946 56.220617 
L 984.439283 56.462188 
L 984.697789 58.870107 
L 985.152305 62.106519 
L 985.672159 64.213612 
L 986.376659 66.131992 
L 987.282851 67.958154 
L 988.311194 69.540801 
L 989.421919 70.847719 
L 990.654794 71.953773 
L 992.137654 72.976382 
L 994.097756 74.045239 
L 996.191372 74.945646 
L 998.015119 75.492648 
L 999.938291 75.831137 
L 1002.440972 76.029686 
L 1006.69354 76.113204 
L 1006.892391 76.189332 
L 1007.00602 78.02534 
L 1007.409404 83.988171 
L 1007.883805 89.475192 
L 1008.074134 98.451612 
L 1008.238896 120.985619 
L 1008.37241 135.941192 
L 1008.417862 132.804275 
L 1008.858175 91.485867 
L 1009.088273 86.443481 
L 1009.122362 86.639298 
L 1009.233151 89.507798 
L 1009.366665 98.588934 
L 1009.568356 128.399378 
L 1009.6621 120.888779 
L 1010.068324 79.609219 
L 1010.281379 76.250191 
L 1010.414893 75.350156 
L 1010.471708 75.630863 
L 1010.579655 77.874641 
L 1010.701807 85.592365 
L 1010.983039 114.682522 
L 1011.051216 111.436877 
L 1011.721628 63.133971 
L 1011.835257 61.563305 
L 1011.880708 61.799777 
L 1012.076719 64.583059 
L 1012.269888 65.773285 
L 1012.275569 65.771925 
L 1012.380676 65.612627 
L 1012.536916 64.997896 
L 1012.769856 63.278666 
L 1013.031203 60.841519 
L 1013.082336 60.909702 
L 1013.269824 61.653927 
L 1013.988528 64.488204 
L 1014.727117 66.405998 
L 1015.656035 68.204794 
L 1016.695741 69.744506 
L 1017.817828 71.014682 
L 1019.07343 72.099078 
L 1020.607423 73.120647 
L 1022.635702 74.193339 
L 1024.681025 75.037961 
L 1026.49625 75.549573 
L 1026.857023 75.720337 
L 1026.979174 77.655375 
L 1027.490505 90.481503 
L 1027.621178 104.273336 
L 1027.820029 147.121656 
L 1027.913773 139.428685 
L 1028.240457 105.773715 
L 1028.33136 103.653414 
L 1028.393856 104.244606 
L 1028.4876 107.561371 
L 1028.640999 119.619688 
L 1028.72338 117.780667 
L 1028.936435 103.825738 
L 1029.217667 86.734123 
L 1029.317092 85.538573 
L 1029.371066 85.932011 
L 1029.782972 93.21308 
L 1029.865353 95.944375 
L 1029.936371 95.288366 
L 1029.964778 95.095374 
L 1030.027274 95.488849 
L 1030.101133 98.50772 
L 1030.297143 112.804874 
L 1030.36248 109.007914 
L 1030.683482 71.25327 
L 1030.7545 73.324111 
L 1030.811315 75.068364 
L 1030.87097 73.579302 
L 1031.37946 56.552343 
L 1031.419231 56.485997 
L 1031.478886 56.588498 
L 1031.561267 57.260137 
L 1032.072598 62.159628 
L 1032.078279 62.157402 
L 1032.143616 61.975253 
L 1032.282812 60.644478 
L 1032.430529 59.606175 
L 1032.47314 59.667524 
L 1032.62654 60.413 
L 1033.279907 63.628985 
L 1033.927593 65.582249 
L 1034.779811 67.445896 
L 1035.779747 69.109252 
L 1036.864905 70.49081 
L 1038.052329 71.644007 
L 1039.441444 72.676688 
L 1041.242465 73.725292 
L 1043.395737 74.72574 
L 1045.267776 75.359665 
L 1046.029091 75.546485 
L 1046.029091 75.546485 
" style="fill:none;stroke:#666666;stroke-linecap:square;stroke-width:1.5;"/>
   </g>
   <g id="line2d_17">
    <path clip-path="url(#pdd18fb64eb)" d="M 193.810909 105.395429 
L 1046.029091 105.395429 
L 1046.029091 105.395429 
" style="fill:none;stroke:#000000;stroke-dasharray:5.55,2.4;stroke-dashoffset:0;stroke-width:1.5;"/>
   </g>
   <g id="line2d_18">
    <path clip-path="url(#pdd18fb64eb)" d="M 193.810909 46.874617 
L 1046.029091 46.874617 
L 1046.029091 46.874617 
" style="fill:none;stroke:#000000;stroke-dasharray:1.5,2.475;stroke-dashoffset:0;stroke-width:1.5;"/>
   </g>
   <g id="patch_3">
    <path d="M 151.2 264.6504 
L 151.2 35.6832 
" style="fill:none;stroke:#000000;stroke-linecap:square;stroke-linejoin:miter;stroke-width:0.8;"/>
   </g>
   <g id="patch_4">
    <path d="M 1088.64 264.6504 
L 1088.64 35.6832 
" style="fill:none;stroke:#000000;stroke-linecap:square;stroke-linejoin:miter;stroke-width:0.8;"/>
   </g>
   <g id="patch_5">
    <path d="M 151.2 264.6504 
L 1088.64 264.6504 
" style="fill:none;stroke:#000000;stroke-linecap:square;stroke-linejoin:miter;stroke-width:0.8;"/>
   </g>
   <g id="patch_6">
    <path d="M 151.2 35.6832 
L 1088.64 35.6832 
" style="fill:none;stroke:#000000;stroke-linecap:square;stroke-linejoin:miter;stroke-width:0.8;"/>
   </g>
   <g id="text_17">
    <!-- Net Suspension Motion Rate, [m/s] -->
    <defs>
     <path d="M 9.8125 72.90625 
L 23.09375 72.90625 
L 55.421875 11.921875 
L 55.421875 72.90625 
L 64.984375 72.90625 
L 64.984375 0 
L 51.703125 0 
L 19.390625 60.984375 
L 19.390625 0 
L 9.8125 0 
z
" id="DejaVuSans-78"/>
     <path d="M 18.3125 70.21875 
L 18.3125 54.6875 
L 36.8125 54.6875 
L 36.8125 47.703125 
L 18.3125 47.703125 
L 18.3125 18.015625 
Q 18.3125 11.328125 20.140625 9.421875 
Q 21.96875 7.515625 27.59375 7.515625 
L 36.8125 7.515625 
L 36.8125 0 
L 27.59375 0 
Q 17.1875 0 13.234375 3.875 
Q 9.28125 7.765625 9.28125 18.015625 
L 9.28125 47.703125 
L 2.6875 47.703125 
L 2.6875 54.6875 
L 9.28125 54.6875 
L 9.28125 70.21875 
z
" id="DejaVuSans-116"/>
     <path d="M 53.515625 70.515625 
L 53.515625 60.890625 
Q 47.90625 63.578125 42.921875 64.890625 
Q 37.9375 66.21875 33.296875 66.21875 
Q 25.25 66.21875 20.875 63.09375 
Q 16.5 59.96875 16.5 54.203125 
Q 16.5 49.359375 19.40625 46.890625 
Q 22.3125 44.4375 30.421875 42.921875 
L 36.375 41.703125 
Q 47.40625 39.59375 52.65625 34.296875 
Q 57.90625 29 57.90625 20.125 
Q 57.90625 9.515625 50.796875 4.046875 
Q 43.703125 -1.421875 29.984375 -1.421875 
Q 24.8125 -1.421875 18.96875 -0.25 
Q 13.140625 0.921875 6.890625 3.21875 
L 6.890625 13.375 
Q 12.890625 10.015625 18.65625 8.296875 
Q 24.421875 6.59375 29.984375 6.59375 
Q 38.421875 6.59375 43.015625 9.90625 
Q 47.609375 13.234375 47.609375 19.390625 
Q 47.609375 24.75 44.3125 27.78125 
Q 41.015625 30.8125 33.5 32.328125 
L 27.484375 33.5 
Q 16.453125 35.6875 11.515625 40.375 
Q 6.59375 45.0625 6.59375 53.421875 
Q 6.59375 63.09375 13.40625 68.65625 
Q 20.21875 74.21875 32.171875 74.21875 
Q 37.3125 74.21875 42.625 73.28125 
Q 47.953125 72.359375 53.515625 70.515625 
z
" id="DejaVuSans-83"/>
     <path d="M 8.5 21.578125 
L 8.5 54.6875 
L 17.484375 54.6875 
L 17.484375 21.921875 
Q 17.484375 14.15625 20.5 10.265625 
Q 23.53125 6.390625 29.59375 6.390625 
Q 36.859375 6.390625 41.078125 11.03125 
Q 45.3125 15.671875 45.3125 23.6875 
L 45.3125 54.6875 
L 54.296875 54.6875 
L 54.296875 0 
L 45.3125 0 
L 45.3125 8.40625 
Q 42.046875 3.421875 37.71875 1 
Q 33.40625 -1.421875 27.6875 -1.421875 
Q 18.265625 -1.421875 13.375 4.4375 
Q 8.5 10.296875 8.5 21.578125 
z
M 31.109375 56 
z
" id="DejaVuSans-117"/>
     <path d="M 18.109375 8.203125 
L 18.109375 -20.796875 
L 9.078125 -20.796875 
L 9.078125 54.6875 
L 18.109375 54.6875 
L 18.109375 46.390625 
Q 20.953125 51.265625 25.265625 53.625 
Q 29.59375 56 35.59375 56 
Q 45.5625 56 51.78125 48.09375 
Q 58.015625 40.1875 58.015625 27.296875 
Q 58.015625 14.40625 51.78125 6.484375 
Q 45.5625 -1.421875 35.59375 -1.421875 
Q 29.59375 -1.421875 25.265625 0.953125 
Q 20.953125 3.328125 18.109375 8.203125 
z
M 48.6875 27.296875 
Q 48.6875 37.203125 44.609375 42.84375 
Q 40.53125 48.484375 33.40625 48.484375 
Q 26.265625 48.484375 22.1875 42.84375 
Q 18.109375 37.203125 18.109375 27.296875 
Q 18.109375 17.390625 22.1875 11.75 
Q 26.265625 6.109375 33.40625 6.109375 
Q 40.53125 6.109375 44.609375 11.75 
Q 48.6875 17.390625 48.6875 27.296875 
z
" id="DejaVuSans-112"/>
     <path d="M 54.890625 33.015625 
L 54.890625 0 
L 45.90625 0 
L 45.90625 32.71875 
Q 45.90625 40.484375 42.875 44.328125 
Q 39.84375 48.1875 33.796875 48.1875 
Q 26.515625 48.1875 22.3125 43.546875 
Q 18.109375 38.921875 18.109375 30.90625 
L 18.109375 0 
L 9.078125 0 
L 9.078125 54.6875 
L 18.109375 54.6875 
L 18.109375 46.1875 
Q 21.34375 51.125 25.703125 53.5625 
Q 30.078125 56 35.796875 56 
Q 45.21875 56 50.046875 50.171875 
Q 54.890625 44.34375 54.890625 33.015625 
z
" id="DejaVuSans-110"/>
     <path d="M 30.609375 48.390625 
Q 23.390625 48.390625 19.1875 42.75 
Q 14.984375 37.109375 14.984375 27.296875 
Q 14.984375 17.484375 19.15625 11.84375 
Q 23.34375 6.203125 30.609375 6.203125 
Q 37.796875 6.203125 41.984375 11.859375 
Q 46.1875 17.53125 46.1875 27.296875 
Q 46.1875 37.015625 41.984375 42.703125 
Q 37.796875 48.390625 30.609375 48.390625 
z
M 30.609375 56 
Q 42.328125 56 49.015625 48.375 
Q 55.71875 40.765625 55.71875 27.296875 
Q 55.71875 13.875 49.015625 6.21875 
Q 42.328125 -1.421875 30.609375 -1.421875 
Q 18.84375 -1.421875 12.171875 6.21875 
Q 5.515625 13.875 5.515625 27.296875 
Q 5.515625 40.765625 12.171875 48.375 
Q 18.84375 56 30.609375 56 
z
" id="DejaVuSans-111"/>
     <path d="M 9.8125 72.90625 
L 24.515625 72.90625 
L 43.109375 23.296875 
L 61.8125 72.90625 
L 76.515625 72.90625 
L 76.515625 0 
L 66.890625 0 
L 66.890625 64.015625 
L 48.09375 14.015625 
L 38.1875 14.015625 
L 19.390625 64.015625 
L 19.390625 0 
L 9.8125 0 
z
" id="DejaVuSans-77"/>
     <path d="M 44.390625 34.1875 
Q 47.5625 33.109375 50.5625 29.59375 
Q 53.5625 26.078125 56.59375 19.921875 
L 66.609375 0 
L 56 0 
L 46.6875 18.703125 
Q 43.0625 26.03125 39.671875 28.421875 
Q 36.28125 30.8125 30.421875 30.8125 
L 19.671875 30.8125 
L 19.671875 0 
L 9.8125 0 
L 9.8125 72.90625 
L 32.078125 72.90625 
Q 44.578125 72.90625 50.734375 67.671875 
Q 56.890625 62.453125 56.890625 51.90625 
Q 56.890625 45.015625 53.6875 40.46875 
Q 50.484375 35.9375 44.390625 34.1875 
z
M 19.671875 64.796875 
L 19.671875 38.921875 
L 32.078125 38.921875 
Q 39.203125 38.921875 42.84375 42.21875 
Q 46.484375 45.515625 46.484375 51.90625 
Q 46.484375 58.296875 42.84375 61.546875 
Q 39.203125 64.796875 32.078125 64.796875 
z
" id="DejaVuSans-82"/>
     <path d="M 34.28125 27.484375 
Q 23.390625 27.484375 19.1875 25 
Q 14.984375 22.515625 14.984375 16.5 
Q 14.984375 11.71875 18.140625 8.90625 
Q 21.296875 6.109375 26.703125 6.109375 
Q 34.1875 6.109375 38.703125 11.40625 
Q 43.21875 16.703125 43.21875 25.484375 
L 43.21875 27.484375 
z
M 52.203125 31.203125 
L 52.203125 0 
L 43.21875 0 
L 43.21875 8.296875 
Q 40.140625 3.328125 35.546875 0.953125 
Q 30.953125 -1.421875 24.3125 -1.421875 
Q 15.921875 -1.421875 10.953125 3.296875 
Q 6 8.015625 6 15.921875 
Q 6 25.140625 12.171875 29.828125 
Q 18.359375 34.515625 30.609375 34.515625 
L 43.21875 34.515625 
L 43.21875 35.40625 
Q 43.21875 41.609375 39.140625 45 
Q 35.0625 48.390625 27.6875 48.390625 
Q 23 48.390625 18.546875 47.265625 
Q 14.109375 46.140625 10.015625 43.890625 
L 10.015625 52.203125 
Q 14.9375 54.109375 19.578125 55.046875 
Q 24.21875 56 28.609375 56 
Q 40.484375 56 46.34375 49.84375 
Q 52.203125 43.703125 52.203125 31.203125 
z
" id="DejaVuSans-97"/>
     <path d="M 25.390625 72.90625 
L 33.6875 72.90625 
L 8.296875 -9.28125 
L 0 -9.28125 
z
" id="DejaVuSans-47"/>
    </defs>
    <g transform="translate(515.64375 29.6832)scale(0.12 -0.12)">
     <use xlink:href="#DejaVuSans-78"/>
     <use x="74.804688" xlink:href="#DejaVuSans-101"/>
     <use x="136.328125" xlink:href="#DejaVuSans-116"/>
     <use x="175.537109" xlink:href="#DejaVuSans-32"/>
     <use x="207.324219" xlink:href="#DejaVuSans-83"/>
     <use x="270.800781" xlink:href="#DejaVuSans-117"/>
     <use x="334.179688" xlink:href="#DejaVuSans-115"/>
     <use x="386.279297" xlink:href="#DejaVuSans-112"/>
     <use x="449.755859" xlink:href="#DejaVuSans-101"/>
     <use x="511.279297" xlink:href="#DejaVuSans-110"/>
     <use x="574.658203" xlink:href="#DejaVuSans-115"/>
     <use x="626.757812" xlink:href="#DejaVuSans-105"/>
     <use x="654.541016" xlink:href="#DejaVuSans-111"/>
     <use x="715.722656" xlink:href="#DejaVuSans-110"/>
     <use x="779.101562" xlink:href="#DejaVuSans-32"/>
     <use x="810.888672" xlink:href="#DejaVuSans-77"/>
     <use x="897.167969" xlink:href="#DejaVuSans-111"/>
     <use x="958.349609" xlink:href="#DejaVuSans-116"/>
     <use x="997.558594" xlink:href="#DejaVuSans-105"/>
     <use x="1025.341797" xlink:href="#DejaVuSans-111"/>
     <use x="1086.523438" xlink:href="#DejaVuSans-110"/>
     <use x="1149.902344" xlink:href="#DejaVuSans-32"/>
     <use x="1181.689453" xlink:href="#DejaVuSans-82"/>
     <use x="1251.140625" xlink:href="#DejaVuSans-97"/>
     <use x="1312.419922" xlink:href="#DejaVuSans-116"/>
     <use x="1351.628906" xlink:href="#DejaVuSans-101"/>
     <use x="1413.152344" xlink:href="#DejaVuSans-44"/>
     <use x="1444.939453" xlink:href="#DejaVuSans-32"/>
     <use x="1476.726562" xlink:href="#DejaVuSans-91"/>
     <use x="1515.740234" xlink:href="#DejaVuSans-109"/>
     <use x="1613.152344" xlink:href="#DejaVuSans-47"/>
     <use x="1646.84375" xlink:href="#DejaVuSans-115"/>
     <use x="1698.943359" xlink:href="#DejaVuSans-93"/>
    </g>
   </g>
   <g id="legend_1">
    <g id="patch_7">
     <path d="M 158.2 259.6504 
L 392.340625 259.6504 
Q 394.340625 259.6504 394.340625 257.6504 
L 394.340625 229.29415 
Q 394.340625 227.29415 392.340625 227.29415 
L 158.2 227.29415 
Q 156.2 227.29415 156.2 229.29415 
L 156.2 257.6504 
Q 156.2 259.6504 158.2 259.6504 
z
" style="fill:#ffffff;opacity:0.8;stroke:#cccccc;stroke-linejoin:miter;"/>
    </g>
    <g id="line2d_19">
     <path d="M 160.2 235.392588 
L 180.2 235.392588 
" style="fill:none;stroke:#000000;stroke-dasharray:5.55,2.4;stroke-dashoffset:0;stroke-width:1.5;"/>
    </g>
    <g id="line2d_20"/>
    <g id="text_18">
     <!-- High/Low Speed Compression Crossover -->
     <defs>
      <path d="M 9.8125 72.90625 
L 19.671875 72.90625 
L 19.671875 43.015625 
L 55.515625 43.015625 
L 55.515625 72.90625 
L 65.375 72.90625 
L 65.375 0 
L 55.515625 0 
L 55.515625 34.71875 
L 19.671875 34.71875 
L 19.671875 0 
L 9.8125 0 
z
" id="DejaVuSans-72"/>
      <path d="M 45.40625 27.984375 
Q 45.40625 37.75 41.375 43.109375 
Q 37.359375 48.484375 30.078125 48.484375 
Q 22.859375 48.484375 18.828125 43.109375 
Q 14.796875 37.75 14.796875 27.984375 
Q 14.796875 18.265625 18.828125 12.890625 
Q 22.859375 7.515625 30.078125 7.515625 
Q 37.359375 7.515625 41.375 12.890625 
Q 45.40625 18.265625 45.40625 27.984375 
z
M 54.390625 6.78125 
Q 54.390625 -7.171875 48.1875 -13.984375 
Q 42 -20.796875 29.203125 -20.796875 
Q 24.46875 -20.796875 20.265625 -20.09375 
Q 16.0625 -19.390625 12.109375 -17.921875 
L 12.109375 -9.1875 
Q 16.0625 -11.328125 19.921875 -12.34375 
Q 23.78125 -13.375 27.78125 -13.375 
Q 36.625 -13.375 41.015625 -8.765625 
Q 45.40625 -4.15625 45.40625 5.171875 
L 45.40625 9.625 
Q 42.625 4.78125 38.28125 2.390625 
Q 33.9375 0 27.875 0 
Q 17.828125 0 11.671875 7.65625 
Q 5.515625 15.328125 5.515625 27.984375 
Q 5.515625 40.671875 11.671875 48.328125 
Q 17.828125 56 27.875 56 
Q 33.9375 56 38.28125 53.609375 
Q 42.625 51.21875 45.40625 46.390625 
L 45.40625 54.6875 
L 54.390625 54.6875 
z
" id="DejaVuSans-103"/>
      <path d="M 54.890625 33.015625 
L 54.890625 0 
L 45.90625 0 
L 45.90625 32.71875 
Q 45.90625 40.484375 42.875 44.328125 
Q 39.84375 48.1875 33.796875 48.1875 
Q 26.515625 48.1875 22.3125 43.546875 
Q 18.109375 38.921875 18.109375 30.90625 
L 18.109375 0 
L 9.078125 0 
L 9.078125 75.984375 
L 18.109375 75.984375 
L 18.109375 46.1875 
Q 21.34375 51.125 25.703125 53.5625 
Q 30.078125 56 35.796875 56 
Q 45.21875 56 50.046875 50.171875 
Q 54.890625 44.34375 54.890625 33.015625 
z
" id="DejaVuSans-104"/>
      <path d="M 9.8125 72.90625 
L 19.671875 72.90625 
L 19.671875 8.296875 
L 55.171875 8.296875 
L 55.171875 0 
L 9.8125 0 
z
" id="DejaVuSans-76"/>
      <path d="M 4.203125 54.6875 
L 13.1875 54.6875 
L 24.421875 12.015625 
L 35.59375 54.6875 
L 46.1875 54.6875 
L 57.421875 12.015625 
L 68.609375 54.6875 
L 77.59375 54.6875 
L 63.28125 0 
L 52.6875 0 
L 40.921875 44.828125 
L 29.109375 0 
L 18.5 0 
z
" id="DejaVuSans-119"/>
      <path d="M 45.40625 46.390625 
L 45.40625 75.984375 
L 54.390625 75.984375 
L 54.390625 0 
L 45.40625 0 
L 45.40625 8.203125 
Q 42.578125 3.328125 38.25 0.953125 
Q 33.9375 -1.421875 27.875 -1.421875 
Q 17.96875 -1.421875 11.734375 6.484375 
Q 5.515625 14.40625 5.515625 27.296875 
Q 5.515625 40.1875 11.734375 48.09375 
Q 17.96875 56 27.875 56 
Q 33.9375 56 38.25 53.625 
Q 42.578125 51.265625 45.40625 46.390625 
z
M 14.796875 27.296875 
Q 14.796875 17.390625 18.875 11.75 
Q 22.953125 6.109375 30.078125 6.109375 
Q 37.203125 6.109375 41.296875 11.75 
Q 45.40625 17.390625 45.40625 27.296875 
Q 45.40625 37.203125 41.296875 42.84375 
Q 37.203125 48.484375 30.078125 48.484375 
Q 22.953125 48.484375 18.875 42.84375 
Q 14.796875 37.203125 14.796875 27.296875 
z
" id="DejaVuSans-100"/>
      <path d="M 64.40625 67.28125 
L 64.40625 56.890625 
Q 59.421875 61.53125 53.78125 63.8125 
Q 48.140625 66.109375 41.796875 66.109375 
Q 29.296875 66.109375 22.65625 58.46875 
Q 16.015625 50.828125 16.015625 36.375 
Q 16.015625 21.96875 22.65625 14.328125 
Q 29.296875 6.6875 41.796875 6.6875 
Q 48.140625 6.6875 53.78125 8.984375 
Q 59.421875 11.28125 64.40625 15.921875 
L 64.40625 5.609375 
Q 59.234375 2.09375 53.4375 0.328125 
Q 47.65625 -1.421875 41.21875 -1.421875 
Q 24.65625 -1.421875 15.125 8.703125 
Q 5.609375 18.84375 5.609375 36.375 
Q 5.609375 53.953125 15.125 64.078125 
Q 24.65625 74.21875 41.21875 74.21875 
Q 47.75 74.21875 53.53125 72.484375 
Q 59.328125 70.75 64.40625 67.28125 
z
" id="DejaVuSans-67"/>
      <path d="M 41.109375 46.296875 
Q 39.59375 47.171875 37.8125 47.578125 
Q 36.03125 48 33.890625 48 
Q 26.265625 48 22.1875 43.046875 
Q 18.109375 38.09375 18.109375 28.8125 
L 18.109375 0 
L 9.078125 0 
L 9.078125 54.6875 
L 18.109375 54.6875 
L 18.109375 46.1875 
Q 20.953125 51.171875 25.484375 53.578125 
Q 30.03125 56 36.53125 56 
Q 37.453125 56 38.578125 55.875 
Q 39.703125 55.765625 41.0625 55.515625 
z
" id="DejaVuSans-114"/>
      <path d="M 2.984375 54.6875 
L 12.5 54.6875 
L 29.59375 8.796875 
L 46.6875 54.6875 
L 56.203125 54.6875 
L 35.6875 0 
L 23.484375 0 
z
" id="DejaVuSans-118"/>
     </defs>
     <g transform="translate(188.2 238.892588)scale(0.1 -0.1)">
      <use xlink:href="#DejaVuSans-72"/>
      <use x="75.195312" xlink:href="#DejaVuSans-105"/>
      <use x="102.978516" xlink:href="#DejaVuSans-103"/>
      <use x="166.455078" xlink:href="#DejaVuSans-104"/>
      <use x="229.833984" xlink:href="#DejaVuSans-47"/>
      <use x="263.525391" xlink:href="#DejaVuSans-76"/>
      <use x="319.222656" xlink:href="#DejaVuSans-111"/>
      <use x="380.404297" xlink:href="#DejaVuSans-119"/>
      <use x="462.191406" xlink:href="#DejaVuSans-32"/>
      <use x="493.978516" xlink:href="#DejaVuSans-83"/>
      <use x="557.455078" xlink:href="#DejaVuSans-112"/>
      <use x="620.931641" xlink:href="#DejaVuSans-101"/>
      <use x="682.455078" xlink:href="#DejaVuSans-101"/>
      <use x="743.978516" xlink:href="#DejaVuSans-100"/>
      <use x="807.455078" xlink:href="#DejaVuSans-32"/>
      <use x="839.242188" xlink:href="#DejaVuSans-67"/>
      <use x="909.066406" xlink:href="#DejaVuSans-111"/>
      <use x="970.248047" xlink:href="#DejaVuSans-109"/>
      <use x="1067.660156" xlink:href="#DejaVuSans-112"/>
      <use x="1131.136719" xlink:href="#DejaVuSans-114"/>
      <use x="1172.21875" xlink:href="#DejaVuSans-101"/>
      <use x="1233.742188" xlink:href="#DejaVuSans-115"/>
      <use x="1285.841797" xlink:href="#DejaVuSans-115"/>
      <use x="1337.941406" xlink:href="#DejaVuSans-105"/>
      <use x="1365.724609" xlink:href="#DejaVuSans-111"/>
      <use x="1426.90625" xlink:href="#DejaVuSans-110"/>
      <use x="1490.285156" xlink:href="#DejaVuSans-32"/>
      <use x="1522.072266" xlink:href="#DejaVuSans-67"/>
      <use x="1591.896484" xlink:href="#DejaVuSans-114"/>
      <use x="1632.978516" xlink:href="#DejaVuSans-111"/>
      <use x="1694.160156" xlink:href="#DejaVuSans-115"/>
      <use x="1746.259766" xlink:href="#DejaVuSans-115"/>
      <use x="1798.359375" xlink:href="#DejaVuSans-111"/>
      <use x="1859.541016" xlink:href="#DejaVuSans-118"/>
      <use x="1918.720703" xlink:href="#DejaVuSans-101"/>
      <use x="1980.244141" xlink:href="#DejaVuSans-114"/>
     </g>
    </g>
    <g id="line2d_21">
     <path d="M 160.2 250.070713 
L 180.2 250.070713 
" style="fill:none;stroke:#000000;stroke-dasharray:1.5,2.475;stroke-dashoffset:0;stroke-width:1.5;"/>
    </g>
    <g id="line2d_22"/>
    <g id="text_19">
     <!-- High/Low Speed Rebound Crossover -->
     <defs>
      <path d="M 48.6875 27.296875 
Q 48.6875 37.203125 44.609375 42.84375 
Q 40.53125 48.484375 33.40625 48.484375 
Q 26.265625 48.484375 22.1875 42.84375 
Q 18.109375 37.203125 18.109375 27.296875 
Q 18.109375 17.390625 22.1875 11.75 
Q 26.265625 6.109375 33.40625 6.109375 
Q 40.53125 6.109375 44.609375 11.75 
Q 48.6875 17.390625 48.6875 27.296875 
z
M 18.109375 46.390625 
Q 20.953125 51.265625 25.265625 53.625 
Q 29.59375 56 35.59375 56 
Q 45.5625 56 51.78125 48.09375 
Q 58.015625 40.1875 58.015625 27.296875 
Q 58.015625 14.40625 51.78125 6.484375 
Q 45.5625 -1.421875 35.59375 -1.421875 
Q 29.59375 -1.421875 25.265625 0.953125 
Q 20.953125 3.328125 18.109375 8.203125 
L 18.109375 0 
L 9.078125 0 
L 9.078125 75.984375 
L 18.109375 75.984375 
z
" id="DejaVuSans-98"/>
     </defs>
     <g transform="translate(188.2 253.570713)scale(0.1 -0.1)">
      <use xlink:href="#DejaVuSans-72"/>
      <use x="75.195312" xlink:href="#DejaVuSans-105"/>
      <use x="102.978516" xlink:href="#DejaVuSans-103"/>
      <use x="166.455078" xlink:href="#DejaVuSans-104"/>
      <use x="229.833984" xlink:href="#DejaVuSans-47"/>
      <use x="263.525391" xlink:href="#DejaVuSans-76"/>
      <use x="319.222656" xlink:href="#DejaVuSans-111"/>
      <use x="380.404297" xlink:href="#DejaVuSans-119"/>
      <use x="462.191406" xlink:href="#DejaVuSans-32"/>
      <use x="493.978516" xlink:href="#DejaVuSans-83"/>
      <use x="557.455078" xlink:href="#DejaVuSans-112"/>
      <use x="620.931641" xlink:href="#DejaVuSans-101"/>
      <use x="682.455078" xlink:href="#DejaVuSans-101"/>
      <use x="743.978516" xlink:href="#DejaVuSans-100"/>
      <use x="807.455078" xlink:href="#DejaVuSans-32"/>
      <use x="839.242188" xlink:href="#DejaVuSans-82"/>
      <use x="908.662109" xlink:href="#DejaVuSans-101"/>
      <use x="970.185547" xlink:href="#DejaVuSans-98"/>
      <use x="1033.662109" xlink:href="#DejaVuSans-111"/>
      <use x="1094.84375" xlink:href="#DejaVuSans-117"/>
      <use x="1158.222656" xlink:href="#DejaVuSans-110"/>
      <use x="1221.601562" xlink:href="#DejaVuSans-100"/>
      <use x="1285.078125" xlink:href="#DejaVuSans-32"/>
      <use x="1316.865234" xlink:href="#DejaVuSans-67"/>
      <use x="1386.689453" xlink:href="#DejaVuSans-114"/>
      <use x="1427.771484" xlink:href="#DejaVuSans-111"/>
      <use x="1488.953125" xlink:href="#DejaVuSans-115"/>
      <use x="1541.052734" xlink:href="#DejaVuSans-115"/>
      <use x="1593.152344" xlink:href="#DejaVuSans-111"/>
      <use x="1654.333984" xlink:href="#DejaVuSans-118"/>
      <use x="1713.513672" xlink:href="#DejaVuSans-101"/>
      <use x="1775.037109" xlink:href="#DejaVuSans-114"/>
     </g>
    </g>
   </g>
  </g>
 </g>
 <defs>
  <clipPath id="pdd18fb64eb">
   <rect height="228.9672" width="937.44" x="151.2" y="35.6832"/>
  </clipPath>
 </defs>
</svg>
