<?xml version="1.0" encoding="utf-8" standalone="no"?>
<!DOCTYPE svg PUBLIC "-//W3C//DTD SVG 1.1//EN"
  "http://www.w3.org/Graphics/SVG/1.1/DTD/svg11.dtd">
<!-- Created with matplotlib (https://matplotlib.org/) -->
<svg height="297.36pt" version="1.1" viewBox="0 0 1209.6 297.36" width="1209.6pt" xmlns="http://www.w3.org/2000/svg" xmlns:xlink="http://www.w3.org/1999/xlink">
 <defs>
  <style type="text/css">
*{stroke-linecap:butt;stroke-linejoin:round;}
  </style>
 </defs>
 <g id="figure_1">
  <g id="patch_1">
   <path d="M 0 297.36 
L 1209.6 297.36 
L 1209.6 0 
L 0 0 
z
" style="fill:#ffffff;"/>
  </g>
  <g id="axes_1">
   <g id="patch_2">
    <path d="M 151.2 264.6504 
L 1088.64 264.6504 
L 1088.64 35.6832 
L 151.2 35.6832 
z
" style="fill:#ffffff;"/>
   </g>
   <g id="matplotlib.axis_1">
    <g id="xtick_1">
     <g id="line2d_1">
      <defs>
       <path d="M 0 0 
L 0 3.5 
" id="m2964078e66" style="stroke:#000000;stroke-width:0.8;"/>
      </defs>
      <g>
       <use style="stroke:#000000;stroke-width:0.8;" x="174.819975" xlink:href="#m2964078e66" y="264.6504"/>
      </g>
     </g>
     <g id="text_1">
      <!-- 0 -->
      <defs>
       <path d="M 31.78125 66.40625 
Q 24.171875 66.40625 20.328125 58.90625 
Q 16.5 51.421875 16.5 36.375 
Q 16.5 21.390625 20.328125 13.890625 
Q 24.171875 6.390625 31.78125 6.390625 
Q 39.453125 6.390625 43.28125 13.890625 
Q 47.125 21.390625 47.125 36.375 
Q 47.125 51.421875 43.28125 58.90625 
Q 39.453125 66.40625 31.78125 66.40625 
z
M 31.78125 74.21875 
Q 44.046875 74.21875 50.515625 64.515625 
Q 56.984375 54.828125 56.984375 36.375 
Q 56.984375 17.96875 50.515625 8.265625 
Q 44.046875 -1.421875 31.78125 -1.421875 
Q 19.53125 -1.421875 13.0625 8.265625 
Q 6.59375 17.96875 6.59375 36.375 
Q 6.59375 54.828125 13.0625 64.515625 
Q 19.53125 74.21875 31.78125 74.21875 
z
" id="DejaVuSans-48"/>
      </defs>
      <g transform="translate(171.638725 279.248838)scale(0.1 -0.1)">
       <use xlink:href="#DejaVuSans-48"/>
      </g>
     </g>
    </g>
    <g id="xtick_2">
     <g id="line2d_2">
      <g>
       <use style="stroke:#000000;stroke-width:0.8;" x="352.867107" xlink:href="#m2964078e66" y="264.6504"/>
      </g>
     </g>
     <g id="text_2">
      <!-- 5 -->
      <defs>
       <path d="M 10.796875 72.90625 
L 49.515625 72.90625 
L 49.515625 64.59375 
L 19.828125 64.59375 
L 19.828125 46.734375 
Q 21.96875 47.46875 24.109375 47.828125 
Q 26.265625 48.1875 28.421875 48.1875 
Q 40.625 48.1875 47.75 41.5 
Q 54.890625 34.8125 54.890625 23.390625 
Q 54.890625 11.625 47.5625 5.09375 
Q 40.234375 -1.421875 26.90625 -1.421875 
Q 22.3125 -1.421875 17.546875 -0.640625 
Q 12.796875 0.140625 7.71875 1.703125 
L 7.71875 11.625 
Q 12.109375 9.234375 16.796875 8.0625 
Q 21.484375 6.890625 26.703125 6.890625 
Q 35.15625 6.890625 40.078125 11.328125 
Q 45.015625 15.765625 45.015625 23.390625 
Q 45.015625 31 40.078125 35.4375 
Q 35.15625 39.890625 26.703125 39.890625 
Q 22.75 39.890625 18.8125 39.015625 
Q 14.890625 38.140625 10.796875 36.28125 
z
" id="DejaVuSans-53"/>
      </defs>
      <g transform="translate(349.685857 279.248838)scale(0.1 -0.1)">
       <use xlink:href="#DejaVuSans-53"/>
      </g>
     </g>
    </g>
    <g id="xtick_3">
     <g id="line2d_3">
      <g>
       <use style="stroke:#000000;stroke-width:0.8;" x="530.914239" xlink:href="#m2964078e66" y="264.6504"/>
      </g>
     </g>
     <g id="text_3">
      <!-- 10 -->
      <defs>
       <path d="M 12.40625 8.296875 
L 28.515625 8.296875 
L 28.515625 63.921875 
L 10.984375 60.40625 
L 10.984375 69.390625 
L 28.421875 72.90625 
L 38.28125 72.90625 
L 38.28125 8.296875 
L 54.390625 8.296875 
L 54.390625 0 
L 12.40625 0 
z
" id="DejaVuSans-49"/>
      </defs>
      <g transform="translate(524.551739 279.248838)scale(0.1 -0.1)">
       <use xlink:href="#DejaVuSans-49"/>
       <use x="63.623047" xlink:href="#DejaVuSans-48"/>
      </g>
     </g>
    </g>
    <g id="xtick_4">
     <g id="line2d_4">
      <g>
       <use style="stroke:#000000;stroke-width:0.8;" x="708.961371" xlink:href="#m2964078e66" y="264.6504"/>
      </g>
     </g>
     <g id="text_4">
      <!-- 15 -->
      <g transform="translate(702.598871 279.248838)scale(0.1 -0.1)">
       <use xlink:href="#DejaVuSans-49"/>
       <use x="63.623047" xlink:href="#DejaVuSans-53"/>
      </g>
     </g>
    </g>
    <g id="xtick_5">
     <g id="line2d_5">
      <g>
       <use style="stroke:#000000;stroke-width:0.8;" x="887.008503" xlink:href="#m2964078e66" y="264.6504"/>
      </g>
     </g>
     <g id="text_5">
      <!-- 20 -->
      <defs>
       <path d="M 19.1875 8.296875 
L 53.609375 8.296875 
L 53.609375 0 
L 7.328125 0 
L 7.328125 8.296875 
Q 12.9375 14.109375 22.625 23.890625 
Q 32.328125 33.6875 34.8125 36.53125 
Q 39.546875 41.84375 41.421875 45.53125 
Q 43.3125 49.21875 43.3125 52.78125 
Q 43.3125 58.59375 39.234375 62.25 
Q 35.15625 65.921875 28.609375 65.921875 
Q 23.96875 65.921875 18.8125 64.3125 
Q 13.671875 62.703125 7.8125 59.421875 
L 7.8125 69.390625 
Q 13.765625 71.78125 18.9375 73 
Q 24.125 74.21875 28.421875 74.21875 
Q 39.75 74.21875 46.484375 68.546875 
Q 53.21875 62.890625 53.21875 53.421875 
Q 53.21875 48.921875 51.53125 44.890625 
Q 49.859375 40.875 45.40625 35.40625 
Q 44.1875 33.984375 37.640625 27.21875 
Q 31.109375 20.453125 19.1875 8.296875 
z
" id="DejaVuSans-50"/>
      </defs>
      <g transform="translate(880.646003 279.248838)scale(0.1 -0.1)">
       <use xlink:href="#DejaVuSans-50"/>
       <use x="63.623047" xlink:href="#DejaVuSans-48"/>
      </g>
     </g>
    </g>
    <g id="xtick_6">
     <g id="line2d_6">
      <g>
       <use style="stroke:#000000;stroke-width:0.8;" x="1065.055635" xlink:href="#m2964078e66" y="264.6504"/>
      </g>
     </g>
     <g id="text_6">
      <!-- 25 -->
      <g transform="translate(1058.693135 279.248838)scale(0.1 -0.1)">
       <use xlink:href="#DejaVuSans-50"/>
       <use x="63.623047" xlink:href="#DejaVuSans-53"/>
      </g>
     </g>
    </g>
    <g id="text_7">
     <!-- Distance, [m] -->
     <defs>
      <path d="M 19.671875 64.796875 
L 19.671875 8.109375 
L 31.59375 8.109375 
Q 46.6875 8.109375 53.6875 14.9375 
Q 60.6875 21.78125 60.6875 36.53125 
Q 60.6875 51.171875 53.6875 57.984375 
Q 46.6875 64.796875 31.59375 64.796875 
z
M 9.8125 72.90625 
L 30.078125 72.90625 
Q 51.265625 72.90625 61.171875 64.09375 
Q 71.09375 55.28125 71.09375 36.53125 
Q 71.09375 17.671875 61.125 8.828125 
Q 51.171875 0 30.078125 0 
L 9.8125 0 
z
" id="DejaVuSans-68"/>
      <path d="M 9.421875 54.6875 
L 18.40625 54.6875 
L 18.40625 0 
L 9.421875 0 
z
M 9.421875 75.984375 
L 18.40625 75.984375 
L 18.40625 64.59375 
L 9.421875 64.59375 
z
" id="DejaVuSans-105"/>
      <path d="M 44.28125 53.078125 
L 44.28125 44.578125 
Q 40.484375 46.53125 36.375 47.5 
Q 32.28125 48.484375 27.875 48.484375 
Q 21.1875 48.484375 17.84375 46.4375 
Q 14.5 44.390625 14.5 40.28125 
Q 14.5 37.15625 16.890625 35.375 
Q 19.28125 33.59375 26.515625 31.984375 
L 29.59375 31.296875 
Q 39.15625 29.25 43.1875 25.515625 
Q 47.21875 21.78125 47.21875 15.09375 
Q 47.21875 7.46875 41.1875 3.015625 
Q 35.15625 -1.421875 24.609375 -1.421875 
Q 20.21875 -1.421875 15.453125 -0.5625 
Q 10.6875 0.296875 5.421875 2 
L 5.421875 11.28125 
Q 10.40625 8.6875 15.234375 7.390625 
Q 20.0625 6.109375 24.8125 6.109375 
Q 31.15625 6.109375 34.5625 8.28125 
Q 37.984375 10.453125 37.984375 14.40625 
Q 37.984375 18.0625 35.515625 20.015625 
Q 33.0625 21.96875 24.703125 23.78125 
L 21.578125 24.515625 
Q 13.234375 26.265625 9.515625 29.90625 
Q 5.8125 33.546875 5.8125 39.890625 
Q 5.8125 47.609375 11.28125 51.796875 
Q 16.75 56 26.8125 56 
Q 31.78125 56 36.171875 55.265625 
Q 40.578125 54.546875 44.28125 53.078125 
z
" id="DejaVuSans-115"/>
      <path d="M 18.3125 70.21875 
L 18.3125 54.6875 
L 36.8125 54.6875 
L 36.8125 47.703125 
L 18.3125 47.703125 
L 18.3125 18.015625 
Q 18.3125 11.328125 20.140625 9.421875 
Q 21.96875 7.515625 27.59375 7.515625 
L 36.8125 7.515625 
L 36.8125 0 
L 27.59375 0 
Q 17.1875 0 13.234375 3.875 
Q 9.28125 7.765625 9.28125 18.015625 
L 9.28125 47.703125 
L 2.6875 47.703125 
L 2.6875 54.6875 
L 9.28125 54.6875 
L 9.28125 70.21875 
z
" id="DejaVuSans-116"/>
      <path d="M 34.28125 27.484375 
Q 23.390625 27.484375 19.1875 25 
Q 14.984375 22.515625 14.984375 16.5 
Q 14.984375 11.71875 18.140625 8.90625 
Q 21.296875 6.109375 26.703125 6.109375 
Q 34.1875 6.109375 38.703125 11.40625 
Q 43.21875 16.703125 43.21875 25.484375 
L 43.21875 27.484375 
z
M 52.203125 31.203125 
L 52.203125 0 
L 43.21875 0 
L 43.21875 8.296875 
Q 40.140625 3.328125 35.546875 0.953125 
Q 30.953125 -1.421875 24.3125 -1.421875 
Q 15.921875 -1.421875 10.953125 3.296875 
Q 6 8.015625 6 15.921875 
Q 6 25.140625 12.171875 29.828125 
Q 18.359375 34.515625 30.609375 34.515625 
L 43.21875 34.515625 
L 43.21875 35.40625 
Q 43.21875 41.609375 39.140625 45 
Q 35.0625 48.390625 27.6875 48.390625 
Q 23 48.390625 18.546875 47.265625 
Q 14.109375 46.140625 10.015625 43.890625 
L 10.015625 52.203125 
Q 14.9375 54.109375 19.578125 55.046875 
Q 24.21875 56 28.609375 56 
Q 40.484375 56 46.34375 49.84375 
Q 52.203125 43.703125 52.203125 31.203125 
z
" id="DejaVuSans-97"/>
      <path d="M 54.890625 33.015625 
L 54.890625 0 
L 45.90625 0 
L 45.90625 32.71875 
Q 45.90625 40.484375 42.875 44.328125 
Q 39.84375 48.1875 33.796875 48.1875 
Q 26.515625 48.1875 22.3125 43.546875 
Q 18.109375 38.921875 18.109375 30.90625 
L 18.109375 0 
L 9.078125 0 
L 9.078125 54.6875 
L 18.109375 54.6875 
L 18.109375 46.1875 
Q 21.34375 51.125 25.703125 53.5625 
Q 30.078125 56 35.796875 56 
Q 45.21875 56 50.046875 50.171875 
Q 54.890625 44.34375 54.890625 33.015625 
z
" id="DejaVuSans-110"/>
      <path d="M 48.78125 52.59375 
L 48.78125 44.1875 
Q 44.96875 46.296875 41.140625 47.34375 
Q 37.3125 48.390625 33.40625 48.390625 
Q 24.65625 48.390625 19.8125 42.84375 
Q 14.984375 37.3125 14.984375 27.296875 
Q 14.984375 17.28125 19.8125 11.734375 
Q 24.65625 6.203125 33.40625 6.203125 
Q 37.3125 6.203125 41.140625 7.25 
Q 44.96875 8.296875 48.78125 10.40625 
L 48.78125 2.09375 
Q 45.015625 0.34375 40.984375 -0.53125 
Q 36.96875 -1.421875 32.421875 -1.421875 
Q 20.0625 -1.421875 12.78125 6.34375 
Q 5.515625 14.109375 5.515625 27.296875 
Q 5.515625 40.671875 12.859375 48.328125 
Q 20.21875 56 33.015625 56 
Q 37.15625 56 41.109375 55.140625 
Q 45.0625 54.296875 48.78125 52.59375 
z
" id="DejaVuSans-99"/>
      <path d="M 56.203125 29.59375 
L 56.203125 25.203125 
L 14.890625 25.203125 
Q 15.484375 15.921875 20.484375 11.0625 
Q 25.484375 6.203125 34.421875 6.203125 
Q 39.59375 6.203125 44.453125 7.46875 
Q 49.3125 8.734375 54.109375 11.28125 
L 54.109375 2.78125 
Q 49.265625 0.734375 44.1875 -0.34375 
Q 39.109375 -1.421875 33.890625 -1.421875 
Q 20.796875 -1.421875 13.15625 6.1875 
Q 5.515625 13.8125 5.515625 26.8125 
Q 5.515625 40.234375 12.765625 48.109375 
Q 20.015625 56 32.328125 56 
Q 43.359375 56 49.78125 48.890625 
Q 56.203125 41.796875 56.203125 29.59375 
z
M 47.21875 32.234375 
Q 47.125 39.59375 43.09375 43.984375 
Q 39.0625 48.390625 32.421875 48.390625 
Q 24.90625 48.390625 20.390625 44.140625 
Q 15.875 39.890625 15.1875 32.171875 
z
" id="DejaVuSans-101"/>
      <path d="M 11.71875 12.40625 
L 22.015625 12.40625 
L 22.015625 4 
L 14.015625 -11.625 
L 7.71875 -11.625 
L 11.71875 4 
z
" id="DejaVuSans-44"/>
      <path id="DejaVuSans-32"/>
      <path d="M 8.59375 75.984375 
L 29.296875 75.984375 
L 29.296875 69 
L 17.578125 69 
L 17.578125 -6.203125 
L 29.296875 -6.203125 
L 29.296875 -13.1875 
L 8.59375 -13.1875 
z
" id="DejaVuSans-91"/>
      <path d="M 52 44.1875 
Q 55.375 50.25 60.0625 53.125 
Q 64.75 56 71.09375 56 
Q 79.640625 56 84.28125 50.015625 
Q 88.921875 44.046875 88.921875 33.015625 
L 88.921875 0 
L 79.890625 0 
L 79.890625 32.71875 
Q 79.890625 40.578125 77.09375 44.375 
Q 74.3125 48.1875 68.609375 48.1875 
Q 61.625 48.1875 57.5625 43.546875 
Q 53.515625 38.921875 53.515625 30.90625 
L 53.515625 0 
L 44.484375 0 
L 44.484375 32.71875 
Q 44.484375 40.625 41.703125 44.40625 
Q 38.921875 48.1875 33.109375 48.1875 
Q 26.21875 48.1875 22.15625 43.53125 
Q 18.109375 38.875 18.109375 30.90625 
L 18.109375 0 
L 9.078125 0 
L 9.078125 54.6875 
L 18.109375 54.6875 
L 18.109375 46.1875 
Q 21.1875 51.21875 25.484375 53.609375 
Q 29.78125 56 35.6875 56 
Q 41.65625 56 45.828125 52.96875 
Q 50 49.953125 52 44.1875 
z
" id="DejaVuSans-109"/>
      <path d="M 30.421875 75.984375 
L 30.421875 -13.1875 
L 9.71875 -13.1875 
L 9.71875 -6.203125 
L 21.390625 -6.203125 
L 21.390625 69 
L 9.71875 69 
L 9.71875 75.984375 
z
" id="DejaVuSans-93"/>
     </defs>
     <g transform="translate(586.1075 292.926963)scale(0.1 -0.1)">
      <use xlink:href="#DejaVuSans-68"/>
      <use x="77.001953" xlink:href="#DejaVuSans-105"/>
      <use x="104.785156" xlink:href="#DejaVuSans-115"/>
      <use x="156.884766" xlink:href="#DejaVuSans-116"/>
      <use x="196.09375" xlink:href="#DejaVuSans-97"/>
      <use x="257.373047" xlink:href="#DejaVuSans-110"/>
      <use x="320.751953" xlink:href="#DejaVuSans-99"/>
      <use x="375.732422" xlink:href="#DejaVuSans-101"/>
      <use x="437.255859" xlink:href="#DejaVuSans-44"/>
      <use x="469.042969" xlink:href="#DejaVuSans-32"/>
      <use x="500.830078" xlink:href="#DejaVuSans-91"/>
      <use x="539.84375" xlink:href="#DejaVuSans-109"/>
      <use x="637.255859" xlink:href="#DejaVuSans-93"/>
     </g>
    </g>
   </g>
   <g id="matplotlib.axis_2">
    <g id="ytick_1">
     <g id="line2d_7">
      <defs>
       <path d="M 0 0 
L -3.5 0 
" id="mfc2328b1ca" style="stroke:#000000;stroke-width:0.8;"/>
      </defs>
      <g>
       <use style="stroke:#000000;stroke-width:0.8;" x="151.2" xlink:href="#mfc2328b1ca" y="252.632055"/>
      </g>
     </g>
     <g id="text_8">
      <!-- −3 -->
      <defs>
       <path d="M 10.59375 35.5 
L 73.1875 35.5 
L 73.1875 27.203125 
L 10.59375 27.203125 
z
" id="DejaVuSans-8722"/>
       <path d="M 40.578125 39.3125 
Q 47.65625 37.796875 51.625 33 
Q 55.609375 28.21875 55.609375 21.1875 
Q 55.609375 10.40625 48.1875 4.484375 
Q 40.765625 -1.421875 27.09375 -1.421875 
Q 22.515625 -1.421875 17.65625 -0.515625 
Q 12.796875 0.390625 7.625 2.203125 
L 7.625 11.71875 
Q 11.71875 9.328125 16.59375 8.109375 
Q 21.484375 6.890625 26.8125 6.890625 
Q 36.078125 6.890625 40.9375 10.546875 
Q 45.796875 14.203125 45.796875 21.1875 
Q 45.796875 27.640625 41.28125 31.265625 
Q 36.765625 34.90625 28.71875 34.90625 
L 20.21875 34.90625 
L 20.21875 43.015625 
L 29.109375 43.015625 
Q 36.375 43.015625 40.234375 45.921875 
Q 44.09375 48.828125 44.09375 54.296875 
Q 44.09375 59.90625 40.109375 62.90625 
Q 36.140625 65.921875 28.71875 65.921875 
Q 24.65625 65.921875 20.015625 65.03125 
Q 15.375 64.15625 9.8125 62.3125 
L 9.8125 71.09375 
Q 15.4375 72.65625 20.34375 73.4375 
Q 25.25 74.21875 29.59375 74.21875 
Q 40.828125 74.21875 47.359375 69.109375 
Q 53.90625 64.015625 53.90625 55.328125 
Q 53.90625 49.265625 50.4375 45.09375 
Q 46.96875 40.921875 40.578125 39.3125 
z
" id="DejaVuSans-51"/>
      </defs>
      <g transform="translate(129.457813 256.431274)scale(0.1 -0.1)">
       <use xlink:href="#DejaVuSans-8722"/>
       <use x="83.789062" xlink:href="#DejaVuSans-51"/>
      </g>
     </g>
    </g>
    <g id="ytick_2">
     <g id="line2d_8">
      <g>
       <use style="stroke:#000000;stroke-width:0.8;" x="151.2" xlink:href="#mfc2328b1ca" y="217.108642"/>
      </g>
     </g>
     <g id="text_9">
      <!-- −2 -->
      <g transform="translate(129.457813 220.907861)scale(0.1 -0.1)">
       <use xlink:href="#DejaVuSans-8722"/>
       <use x="83.789062" xlink:href="#DejaVuSans-50"/>
      </g>
     </g>
    </g>
    <g id="ytick_3">
     <g id="line2d_9">
      <g>
       <use style="stroke:#000000;stroke-width:0.8;" x="151.2" xlink:href="#mfc2328b1ca" y="181.585229"/>
      </g>
     </g>
     <g id="text_10">
      <!-- −1 -->
      <g transform="translate(129.457813 185.384448)scale(0.1 -0.1)">
       <use xlink:href="#DejaVuSans-8722"/>
       <use x="83.789062" xlink:href="#DejaVuSans-49"/>
      </g>
     </g>
    </g>
    <g id="ytick_4">
     <g id="line2d_10">
      <g>
       <use style="stroke:#000000;stroke-width:0.8;" x="151.2" xlink:href="#mfc2328b1ca" y="146.061815"/>
      </g>
     </g>
     <g id="text_11">
      <!-- 0 -->
      <g transform="translate(137.8375 149.861034)scale(0.1 -0.1)">
       <use xlink:href="#DejaVuSans-48"/>
      </g>
     </g>
    </g>
    <g id="ytick_5">
     <g id="line2d_11">
      <g>
       <use style="stroke:#000000;stroke-width:0.8;" x="151.2" xlink:href="#mfc2328b1ca" y="110.538402"/>
      </g>
     </g>
     <g id="text_12">
      <!-- 1 -->
      <g transform="translate(137.8375 114.337621)scale(0.1 -0.1)">
       <use xlink:href="#DejaVuSans-49"/>
      </g>
     </g>
    </g>
    <g id="ytick_6">
     <g id="line2d_12">
      <g>
       <use style="stroke:#000000;stroke-width:0.8;" x="151.2" xlink:href="#mfc2328b1ca" y="75.014989"/>
      </g>
     </g>
     <g id="text_13">
      <!-- 2 -->
      <g transform="translate(137.8375 78.814208)scale(0.1 -0.1)">
       <use xlink:href="#DejaVuSans-50"/>
      </g>
     </g>
    </g>
    <g id="ytick_7">
     <g id="line2d_13">
      <g>
       <use style="stroke:#000000;stroke-width:0.8;" x="151.2" xlink:href="#mfc2328b1ca" y="39.491576"/>
      </g>
     </g>
     <g id="text_14">
      <!-- 3 -->
      <g transform="translate(137.8375 43.290794)scale(0.1 -0.1)">
       <use xlink:href="#DejaVuSans-51"/>
      </g>
     </g>
    </g>
    <g id="text_15">
     <!-- Altitude, [m] -->
     <defs>
      <path d="M 34.1875 63.1875 
L 20.796875 26.90625 
L 47.609375 26.90625 
z
M 28.609375 72.90625 
L 39.796875 72.90625 
L 67.578125 0 
L 57.328125 0 
L 50.6875 18.703125 
L 17.828125 18.703125 
L 11.1875 0 
L 0.78125 0 
z
" id="DejaVuSans-65"/>
      <path d="M 9.421875 75.984375 
L 18.40625 75.984375 
L 18.40625 0 
L 9.421875 0 
z
" id="DejaVuSans-108"/>
      <path d="M 8.5 21.578125 
L 8.5 54.6875 
L 17.484375 54.6875 
L 17.484375 21.921875 
Q 17.484375 14.15625 20.5 10.265625 
Q 23.53125 6.390625 29.59375 6.390625 
Q 36.859375 6.390625 41.078125 11.03125 
Q 45.3125 15.671875 45.3125 23.6875 
L 45.3125 54.6875 
L 54.296875 54.6875 
L 54.296875 0 
L 45.3125 0 
L 45.3125 8.40625 
Q 42.046875 3.421875 37.71875 1 
Q 33.40625 -1.421875 27.6875 -1.421875 
Q 18.265625 -1.421875 13.375 4.4375 
Q 8.5 10.296875 8.5 21.578125 
z
M 31.109375 56 
z
" id="DejaVuSans-117"/>
      <path d="M 45.40625 46.390625 
L 45.40625 75.984375 
L 54.390625 75.984375 
L 54.390625 0 
L 45.40625 0 
L 45.40625 8.203125 
Q 42.578125 3.328125 38.25 0.953125 
Q 33.9375 -1.421875 27.875 -1.421875 
Q 17.96875 -1.421875 11.734375 6.484375 
Q 5.515625 14.40625 5.515625 27.296875 
Q 5.515625 40.1875 11.734375 48.09375 
Q 17.96875 56 27.875 56 
Q 33.9375 56 38.25 53.625 
Q 42.578125 51.265625 45.40625 46.390625 
z
M 14.796875 27.296875 
Q 14.796875 17.390625 18.875 11.75 
Q 22.953125 6.109375 30.078125 6.109375 
Q 37.203125 6.109375 41.296875 11.75 
Q 45.40625 17.390625 45.40625 27.296875 
Q 45.40625 37.203125 41.296875 42.84375 
Q 37.203125 48.484375 30.078125 48.484375 
Q 22.953125 48.484375 18.875 42.84375 
Q 14.796875 37.203125 14.796875 27.296875 
z
" id="DejaVuSans-100"/>
     </defs>
     <g transform="translate(123.378125 181.655081)rotate(-90)scale(0.1 -0.1)">
      <use xlink:href="#DejaVuSans-65"/>
      <use x="68.408203" xlink:href="#DejaVuSans-108"/>
      <use x="96.191406" xlink:href="#DejaVuSans-116"/>
      <use x="135.400391" xlink:href="#DejaVuSans-105"/>
      <use x="163.183594" xlink:href="#DejaVuSans-116"/>
      <use x="202.392578" xlink:href="#DejaVuSans-117"/>
      <use x="265.771484" xlink:href="#DejaVuSans-100"/>
      <use x="329.248047" xlink:href="#DejaVuSans-101"/>
      <use x="390.771484" xlink:href="#DejaVuSans-44"/>
      <use x="422.558594" xlink:href="#DejaVuSans-32"/>
      <use x="454.345703" xlink:href="#DejaVuSans-91"/>
      <use x="493.359375" xlink:href="#DejaVuSans-109"/>
      <use x="590.771484" xlink:href="#DejaVuSans-93"/>
     </g>
    </g>
   </g>
   <g id="line2d_14">
    <path clip-path="url(#p175adbc5b7)" d="M 174.819975 146.061815 
L 183.686722 145.826849 
L 187.212055 145.598707 
L 192.909563 144.945111 
L 201.740701 144.096539 
L 203.271906 144.080582 
L 204.981159 143.880466 
L 206.512364 143.710173 
L 208.257226 143.544078 
L 216.803488 142.780796 
L 222.251731 142.561682 
L 225.029266 142.680644 
L 227.949239 142.918272 
L 230.085804 143.071414 
L 232.614074 143.613317 
L 234.358936 144.071678 
L 236.424282 144.652651 
L 240.626195 146.139545 
L 247.356376 147.908189 
L 250.20513 148.362712 
L 254.335824 148.569745 
L 256.365561 148.611487 
L 258.395298 148.472344 
L 261.706975 148.060388 
L 266.37181 147.002021 
L 277.232685 144.7802 
L 286.455526 142.543154 
L 288.057951 142.374225 
L 289.909641 142.211164 
L 293.221317 141.70336 
L 298.66956 140.67837 
L 300.236374 140.620833 
L 302.301721 140.50491 
L 305.150475 140.425586 
L 311.667 140.280418 
L 313.198206 140.304474 
L 319.10937 140.095026 
L 321.815687 140.506483 
L 325.234192 141.108395 
L 328.937572 141.550661 
L 333.780454 142.262642 
L 339.442353 143.040997 
L 344.60572 143.181072 
L 347.739349 142.793758 
L 349.519821 142.578157 
L 358.671443 141.840173 
L 360.13143 141.436665 
L 365.009921 139.851208 
L 369.247443 138.812621 
L 371.099133 138.509918 
L 376.796641 137.908794 
L 379.574176 137.535434 
L 381.746352 137.217805 
L 383.882917 137.064364 
L 385.912654 137.093414 
L 387.657516 137.292709 
L 389.117503 137.45527 
L 391.076021 137.754108 
L 394.708183 138.271155 
L 400.192034 138.286417 
L 401.901287 138.112148 
L 404.536384 137.890111 
L 408.275374 138.117365 
L 411.978755 138.334361 
L 414.044101 138.268133 
L 419.990875 137.992688 
L 423.694256 138.384089 
L 425.830821 138.49534 
L 431.635158 138.891844 
L 435.124882 138.822932 
L 436.834134 138.894408 
L 439.433622 139.096175 
L 443.956019 139.277658 
L 446.021366 139.032842 
L 451.255952 137.918981 
L 454.104706 137.123944 
L 456.846632 136.179862 
L 458.80515 135.52131 
L 463.469985 134.166821 
L 467.102147 133.495307 
L 469.523588 133.16261 
L 472.906483 133.082782 
L 477.642537 133.41937 
L 480.170806 133.93231 
L 485.049297 134.97305 
L 496.551142 136.890027 
L 505.667155 138.688328 
L 506.949095 138.984003 
L 508.836394 139.425063 
L 510.652475 140.159946 
L 512.326118 140.678318 
L 516.456812 141.77809 
L 518.272892 142.138281 
L 520.231411 142.585368 
L 524.540151 143.63402 
L 526.925983 144.073329 
L 528.813283 144.226158 
L 531.270333 144.229818 
L 533.478117 144.292133 
L 538.463437 144.686526 
L 541.668285 145.460664 
L 553.561834 149.692008 
L 556.731073 150.87864 
L 559.829093 151.806035 
L 562.749066 152.521259 
L 564.95685 152.631912 
L 572.185564 152.578749 
L 575.604069 152.414644 
L 577.099665 152.341342 
L 579.948419 152.32315 
L 583.295705 152.560416 
L 588.245415 152.479589 
L 593.480001 153.130086 
L 605.053064 155.302462 
L 607.652553 155.561745 
L 609.895946 156.02798 
L 613.065185 156.786878 
L 615.664674 157.16353 
L 618.442209 157.301086 
L 620.187071 157.091434 
L 622.288027 156.610052 
L 625.635313 155.664298 
L 628.555286 154.583189 
L 633.683043 152.044912 
L 636.246922 150.5764 
L 643.22637 146.508105 
L 645.897077 145.506786 
L 649.3868 144.609874 
L 650.775568 144.371067 
L 653.553103 144.166461 
L 654.870652 144.1803 
L 656.330638 144.394605 
L 660.532551 145.149347 
L 662.847164 145.547119 
L 667.120295 145.96239 
L 669.185641 145.851739 
L 674.24218 145.530519 
L 687.738153 145.049645 
L 694.646381 145.615645 
L 697.886839 146.230177 
L 699.631701 146.414475 
L 702.765331 146.380654 
L 704.901896 146.074886 
L 713.127674 144.500564 
L 718.255431 143.388118 
L 720.641263 142.995642 
L 725.412926 141.828711 
L 727.763148 141.541783 
L 729.899713 141.398642 
L 734.244063 140.913894 
L 737.164036 140.489976 
L 739.549868 140.422143 
L 742.078137 140.558101 
L 744.357141 140.883561 
L 747.846864 141.688374 
L 754.434608 143.646284 
L 756.571174 144.705726 
L 759.91846 146.780595 
L 763.372574 148.959165 
L 766.75547 150.833239 
L 769.070082 151.9215 
L 772.702244 153.159476 
L 774.731981 153.654106 
L 777.153422 153.891995 
L 780.144614 154.237429 
L 782.24557 154.388071 
L 784.524574 154.18384 
L 791.290365 152.961555 
L 793.533758 152.695874 
L 796.987873 152.649512 
L 800.584425 153.145068 
L 802.15124 153.599943 
L 803.326351 153.879216 
L 804.964384 154.034687 
L 807.528263 154.26349 
L 809.807266 154.780381 
L 818.389138 157.657858 
L 821.558377 158.400824 
L 823.410067 158.629099 
L 829.178794 159.279191 
L 832.063158 159.773851 
L 836.015804 160.102508 
L 840.894296 160.159006 
L 843.529393 160.069491 
L 852.360531 159.673913 
L 854.105393 159.611728 
L 856.313177 159.630045 
L 860.550699 159.813276 
L 864.254079 159.67278 
L 867.31649 159.392819 
L 870.200853 159.236557 
L 880.491978 158.836717 
L 884.302186 158.278177 
L 888.824583 157.765267 
L 890.996758 157.763621 
L 893.062105 157.745574 
L 898.795223 157.507189 
L 901.608368 157.728615 
L 903.139573 157.748726 
L 905.418576 157.764891 
L 910.831209 158.094479 
L 912.896556 158.274922 
L 914.997512 158.367957 
L 918.985768 158.464701 
L 922.226225 158.62029 
L 924.291572 158.369928 
L 929.917862 157.981359 
L 932.51735 158.003928 
L 936.612434 158.001581 
L 940.529471 157.775296 
L 943.449444 157.802735 
L 947.152824 157.730858 
L 949.146952 158.060962 
L 953.099598 158.748443 
L 956.518103 159.269401 
L 961.574642 159.95229 
L 963.283894 160.495805 
L 968.411651 162.247407 
L 971.6165 163.229317 
L 978.168634 164.413403 
L 979.735449 164.693724 
L 981.373483 165.24055 
L 983.972971 166.068103 
L 991.985092 168.103895 
L 997.504553 169.177448 
L 1002.596701 170.493571 
L 1006.834223 171.751662 
L 1008.970788 172.284213 
L 1013.101482 173.46881 
L 1014.597078 173.650431 
L 1016.128283 173.809791 
L 1019.582397 174.612289 
L 1025.636 176.478624 
L 1027.772565 176.729299 
L 1031.440336 176.883068 
L 1033.398855 176.865528 
L 1035.392983 176.677457 
L 1038.811487 176.27593 
L 1044.936309 175.665291 
L 1048.212376 174.870037 
L 1051.346006 174.440426 
L 1058.218625 174.083176 
L 1061.102988 174.239383 
L 1064.841978 174.455541 
L 1065.020025 174.453315 
L 1065.020025 174.453315 
" style="fill:none;stroke:#b2b2b2;stroke-linecap:square;stroke-width:1.5;"/>
   </g>
   <g id="line2d_15">
    <path clip-path="url(#p175adbc5b7)" d="M 174.819975 143.806079 
L 187.49693 143.917044 
L 194.476378 143.864522 
L 200.992903 143.603149 
L 211.533293 142.835969 
L 228.839475 141.302587 
L 233.967232 141.161694 
L 242.620323 141.226368 
L 252.555353 141.513617 
L 262.347945 142.019124 
L 271.998099 142.739453 
L 281.29216 143.431701 
L 283.393116 143.354219 
L 284.781883 143.068694 
L 289.268671 141.946452 
L 292.794004 141.513866 
L 296.426166 140.997341 
L 304.153411 139.667997 
L 310.919202 138.935012 
L 317.756212 138.384051 
L 324.165909 138.041856 
L 334.528252 137.798483 
L 345.175471 137.763696 
L 355.430985 137.951269 
L 370.67182 138.289532 
L 374.268372 137.987269 
L 380.749288 137.190125 
L 388.618971 136.172635 
L 392.963321 135.90424 
L 398.375954 135.831086 
L 410.839253 135.912778 
L 426.258135 136.342672 
L 435.160491 136.850269 
L 451.184733 137.720097 
L 453.285689 137.583134 
L 454.49641 137.288051 
L 456.419319 136.52062 
L 459.552948 135.322891 
L 463.754861 134.04803 
L 467.102147 133.195115 
L 471.8382 132.255389 
L 476.82352 131.496083 
L 481.488355 131.008976 
L 493.59556 130.036044 
L 505.133014 129.320222 
L 515.887061 128.874467 
L 526.213794 128.667924 
L 536.255653 128.688795 
L 546.083854 128.93068 
L 555.769618 129.390497 
L 565.384163 130.069475 
L 574.92749 130.966351 
L 584.435207 132.083382 
L 593.907314 133.420094 
L 603.343812 134.975754 
L 612.78031 136.756805 
L 622.181199 138.757284 
L 631.546478 140.976846 
L 640.911757 143.424959 
L 647.677548 145.165185 
L 648.639002 145.192281 
L 649.458019 144.965726 
L 651.772632 144.186105 
L 653.339447 143.98984 
L 655.725278 143.941156 
L 659.215002 144.10089 
L 664.449588 144.572315 
L 673.067069 145.351946 
L 676.271917 145.385623 
L 680.295782 145.190605 
L 694.254678 144.479511 
L 699.560482 144.553182 
L 709.175027 144.776875 
L 712.807189 144.584109 
L 714.62327 144.28288 
L 729.721666 140.83493 
L 737.448912 139.647091 
L 744.99811 138.5552 
L 754.149733 137.637561 
L 767.182783 136.50964 
L 778.399752 135.761937 
L 788.975752 135.277861 
L 799.195657 135.031342 
L 809.166297 135.012603 
L 818.958889 135.216243 
L 828.609043 135.638596 
L 838.187979 136.280054 
L 847.695696 137.138953 
L 857.167803 138.217161 
L 866.639911 139.519394 
L 876.076409 141.041273 
L 885.477297 142.782145 
L 894.878186 144.749425 
L 904.243465 146.936644 
L 913.573135 149.343518 
L 922.902805 151.98013 
L 932.232474 154.848464 
L 941.099221 157.570873 
L 943.235787 157.973417 
L 944.553336 158.008121 
L 945.977713 157.783791 
L 947.615746 157.597063 
L 949.396218 157.63922 
L 952.280581 157.965112 
L 962.89219 159.527693 
L 968.197995 160.397265 
L 973.361362 161.479803 
L 987.996836 164.877307 
L 1007.332755 169.926106 
L 1031.084242 176.312561 
L 1034.111043 176.918904 
L 1035.392983 176.977619 
L 1036.532484 176.797764 
L 1039.381238 176.232017 
L 1041.482194 176.1032 
L 1044.758262 175.911961 
L 1046.147029 175.625006 
L 1050.562598 174.461136 
L 1053.055258 174.201037 
L 1063.025897 173.633879 
L 1065.020025 173.560621 
L 1065.020025 173.560621 
" style="fill:none;stroke:#666666;stroke-linecap:square;stroke-width:1.5;"/>
   </g>
   <g id="line2d_16">
    <path clip-path="url(#p175adbc5b7)" d="M 174.819975 136.701396 
L 184.078426 136.811917 
L 211.71134 137.339872 
L 219.616633 137.132294 
L 231.688229 136.551065 
L 241.160336 136.202879 
L 250.062693 136.102081 
L 259.000659 136.22361 
L 267.938625 136.567796 
L 276.876591 137.134149 
L 286.776011 137.771591 
L 291.262799 137.716684 
L 297.708105 137.419739 
L 303.334395 136.923854 
L 316.153788 135.506864 
L 327.83368 134.318853 
L 336.700427 133.655773 
L 345.567174 133.215036 
L 354.469531 132.995169 
L 363.371887 132.997551 
L 378.75516 133.083365 
L 384.986809 132.805298 
L 409.379266 131.406241 
L 418.281623 131.258553 
L 428.715185 131.317899 
L 437.795589 131.594935 
L 448.442807 132.147591 
L 455.813958 132.473949 
L 459.018807 132.351774 
L 462.971453 131.965957 
L 467.778726 131.263395 
L 475.648409 129.85973 
L 486.936597 127.87758 
L 495.767735 126.572811 
L 504.634482 125.487173 
L 513.536839 124.621592 
L 522.439195 123.979635 
L 531.341552 123.560332 
L 540.243908 123.362905 
L 549.181874 123.387272 
L 558.11984 123.634177 
L 567.057807 124.103249 
L 575.995773 124.79421 
L 584.969348 125.710929 
L 593.942923 126.850929 
L 602.952108 128.219911 
L 611.961293 129.813637 
L 621.006088 131.639562 
L 630.086491 133.700161 
L 639.166895 135.988482 
L 652.556039 139.418099 
L 657.220874 140.061743 
L 666.835419 141.117413 
L 677.589466 142.132334 
L 683.037708 142.403202 
L 688.806435 142.469537 
L 697.922449 142.292138 
L 718.184212 141.693314 
L 723.169532 141.117311 
L 727.905586 140.364424 
L 735.775269 138.839321 
L 756.428736 134.77434 
L 765.259874 133.364965 
L 774.126621 132.174379 
L 783.028978 131.203468 
L 791.931334 130.456211 
L 800.833691 129.931631 
L 809.736047 129.628946 
L 818.674013 129.54765 
L 827.611979 129.688903 
L 836.549946 130.052331 
L 845.487912 130.637655 
L 854.461487 131.448321 
L 863.435062 132.482272 
L 872.444247 133.744789 
L 881.453432 135.232054 
L 890.498227 136.951103 
L 899.543021 138.896304 
L 908.623425 141.076446 
L 917.739438 143.493996 
L 926.89106 146.151444 
L 936.078292 149.051365 
L 946.547464 152.374296 
L 950.606938 153.289475 
L 959.010763 154.921781 
L 970.548217 156.93494 
L 980.874951 158.839856 
L 990.84559 160.891798 
L 1000.460135 163.112533 
L 1012.104418 166.024723 
L 1026.455017 169.884545 
L 1037.280282 172.736305 
L 1040.556349 173.295453 
L 1045.043137 173.828379 
L 1048.283595 174.010886 
L 1051.844538 173.964664 
L 1056.865467 173.663031 
L 1063.025897 173.065553 
L 1065.020025 172.843924 
L 1065.020025 172.843924 
" style="fill:none;stroke:#000000;stroke-linecap:square;stroke-width:1.5;"/>
   </g>
   <g id="patch_3">
    <path d="M 151.2 264.6504 
L 151.2 35.6832 
" style="fill:none;stroke:#000000;stroke-linecap:square;stroke-linejoin:miter;stroke-width:0.8;"/>
   </g>
   <g id="patch_4">
    <path d="M 1088.64 264.6504 
L 1088.64 35.6832 
" style="fill:none;stroke:#000000;stroke-linecap:square;stroke-linejoin:miter;stroke-width:0.8;"/>
   </g>
   <g id="patch_5">
    <path d="M 151.2 264.6504 
L 1088.64 264.6504 
" style="fill:none;stroke:#000000;stroke-linecap:square;stroke-linejoin:miter;stroke-width:0.8;"/>
   </g>
   <g id="patch_6">
    <path d="M 151.2 35.6832 
L 1088.64 35.6832 
" style="fill:none;stroke:#000000;stroke-linecap:square;stroke-linejoin:miter;stroke-width:0.8;"/>
   </g>
   <g id="text_16">
    <!-- Ground, Wheel, and Frame Position -->
    <defs>
     <path d="M 59.515625 10.40625 
L 59.515625 29.984375 
L 43.40625 29.984375 
L 43.40625 38.09375 
L 69.28125 38.09375 
L 69.28125 6.78125 
Q 63.578125 2.734375 56.6875 0.65625 
Q 49.8125 -1.421875 42 -1.421875 
Q 24.90625 -1.421875 15.25 8.5625 
Q 5.609375 18.5625 5.609375 36.375 
Q 5.609375 54.25 15.25 64.234375 
Q 24.90625 74.21875 42 74.21875 
Q 49.125 74.21875 55.546875 72.453125 
Q 61.96875 70.703125 67.390625 67.28125 
L 67.390625 56.78125 
Q 61.921875 61.421875 55.765625 63.765625 
Q 49.609375 66.109375 42.828125 66.109375 
Q 29.4375 66.109375 22.71875 58.640625 
Q 16.015625 51.171875 16.015625 36.375 
Q 16.015625 21.625 22.71875 14.15625 
Q 29.4375 6.6875 42.828125 6.6875 
Q 48.046875 6.6875 52.140625 7.59375 
Q 56.25 8.5 59.515625 10.40625 
z
" id="DejaVuSans-71"/>
     <path d="M 41.109375 46.296875 
Q 39.59375 47.171875 37.8125 47.578125 
Q 36.03125 48 33.890625 48 
Q 26.265625 48 22.1875 43.046875 
Q 18.109375 38.09375 18.109375 28.8125 
L 18.109375 0 
L 9.078125 0 
L 9.078125 54.6875 
L 18.109375 54.6875 
L 18.109375 46.1875 
Q 20.953125 51.171875 25.484375 53.578125 
Q 30.03125 56 36.53125 56 
Q 37.453125 56 38.578125 55.875 
Q 39.703125 55.765625 41.0625 55.515625 
z
" id="DejaVuSans-114"/>
     <path d="M 30.609375 48.390625 
Q 23.390625 48.390625 19.1875 42.75 
Q 14.984375 37.109375 14.984375 27.296875 
Q 14.984375 17.484375 19.15625 11.84375 
Q 23.34375 6.203125 30.609375 6.203125 
Q 37.796875 6.203125 41.984375 11.859375 
Q 46.1875 17.53125 46.1875 27.296875 
Q 46.1875 37.015625 41.984375 42.703125 
Q 37.796875 48.390625 30.609375 48.390625 
z
M 30.609375 56 
Q 42.328125 56 49.015625 48.375 
Q 55.71875 40.765625 55.71875 27.296875 
Q 55.71875 13.875 49.015625 6.21875 
Q 42.328125 -1.421875 30.609375 -1.421875 
Q 18.84375 -1.421875 12.171875 6.21875 
Q 5.515625 13.875 5.515625 27.296875 
Q 5.515625 40.765625 12.171875 48.375 
Q 18.84375 56 30.609375 56 
z
" id="DejaVuSans-111"/>
     <path d="M 3.328125 72.90625 
L 13.28125 72.90625 
L 28.609375 11.28125 
L 43.890625 72.90625 
L 54.984375 72.90625 
L 70.3125 11.28125 
L 85.59375 72.90625 
L 95.609375 72.90625 
L 77.296875 0 
L 64.890625 0 
L 49.515625 63.28125 
L 33.984375 0 
L 21.578125 0 
z
" id="DejaVuSans-87"/>
     <path d="M 54.890625 33.015625 
L 54.890625 0 
L 45.90625 0 
L 45.90625 32.71875 
Q 45.90625 40.484375 42.875 44.328125 
Q 39.84375 48.1875 33.796875 48.1875 
Q 26.515625 48.1875 22.3125 43.546875 
Q 18.109375 38.921875 18.109375 30.90625 
L 18.109375 0 
L 9.078125 0 
L 9.078125 75.984375 
L 18.109375 75.984375 
L 18.109375 46.1875 
Q 21.34375 51.125 25.703125 53.5625 
Q 30.078125 56 35.796875 56 
Q 45.21875 56 50.046875 50.171875 
Q 54.890625 44.34375 54.890625 33.015625 
z
" id="DejaVuSans-104"/>
     <path d="M 9.8125 72.90625 
L 51.703125 72.90625 
L 51.703125 64.59375 
L 19.671875 64.59375 
L 19.671875 43.109375 
L 48.578125 43.109375 
L 48.578125 34.8125 
L 19.671875 34.8125 
L 19.671875 0 
L 9.8125 0 
z
" id="DejaVuSans-70"/>
     <path d="M 19.671875 64.796875 
L 19.671875 37.40625 
L 32.078125 37.40625 
Q 38.96875 37.40625 42.71875 40.96875 
Q 46.484375 44.53125 46.484375 51.125 
Q 46.484375 57.671875 42.71875 61.234375 
Q 38.96875 64.796875 32.078125 64.796875 
z
M 9.8125 72.90625 
L 32.078125 72.90625 
Q 44.34375 72.90625 50.609375 67.359375 
Q 56.890625 61.8125 56.890625 51.125 
Q 56.890625 40.328125 50.609375 34.8125 
Q 44.34375 29.296875 32.078125 29.296875 
L 19.671875 29.296875 
L 19.671875 0 
L 9.8125 0 
z
" id="DejaVuSans-80"/>
    </defs>
    <g transform="translate(513.51 29.6832)scale(0.12 -0.12)">
     <use xlink:href="#DejaVuSans-71"/>
     <use x="77.490234" xlink:href="#DejaVuSans-114"/>
     <use x="118.572266" xlink:href="#DejaVuSans-111"/>
     <use x="179.753906" xlink:href="#DejaVuSans-117"/>
     <use x="243.132812" xlink:href="#DejaVuSans-110"/>
     <use x="306.511719" xlink:href="#DejaVuSans-100"/>
     <use x="369.988281" xlink:href="#DejaVuSans-44"/>
     <use x="401.775391" xlink:href="#DejaVuSans-32"/>
     <use x="433.5625" xlink:href="#DejaVuSans-87"/>
     <use x="532.439453" xlink:href="#DejaVuSans-104"/>
     <use x="595.818359" xlink:href="#DejaVuSans-101"/>
     <use x="657.341797" xlink:href="#DejaVuSans-101"/>
     <use x="718.865234" xlink:href="#DejaVuSans-108"/>
     <use x="746.648438" xlink:href="#DejaVuSans-44"/>
     <use x="778.435547" xlink:href="#DejaVuSans-32"/>
     <use x="810.222656" xlink:href="#DejaVuSans-97"/>
     <use x="871.501953" xlink:href="#DejaVuSans-110"/>
     <use x="934.880859" xlink:href="#DejaVuSans-100"/>
     <use x="998.357422" xlink:href="#DejaVuSans-32"/>
     <use x="1030.144531" xlink:href="#DejaVuSans-70"/>
     <use x="1087.554688" xlink:href="#DejaVuSans-114"/>
     <use x="1128.667969" xlink:href="#DejaVuSans-97"/>
     <use x="1189.947266" xlink:href="#DejaVuSans-109"/>
     <use x="1287.359375" xlink:href="#DejaVuSans-101"/>
     <use x="1348.882812" xlink:href="#DejaVuSans-32"/>
     <use x="1380.669922" xlink:href="#DejaVuSans-80"/>
     <use x="1440.925781" xlink:href="#DejaVuSans-111"/>
     <use x="1502.107422" xlink:href="#DejaVuSans-115"/>
     <use x="1554.207031" xlink:href="#DejaVuSans-105"/>
     <use x="1581.990234" xlink:href="#DejaVuSans-116"/>
     <use x="1621.199219" xlink:href="#DejaVuSans-105"/>
     <use x="1648.982422" xlink:href="#DejaVuSans-111"/>
     <use x="1710.164062" xlink:href="#DejaVuSans-110"/>
    </g>
   </g>
   <g id="legend_1">
    <g id="patch_7">
     <path d="M 1012.641563 87.717575 
L 1081.64 87.717575 
Q 1083.64 87.717575 1083.64 85.717575 
L 1083.64 42.6832 
Q 1083.64 40.6832 1081.64 40.6832 
L 1012.641563 40.6832 
Q 1010.641563 40.6832 1010.641563 42.6832 
L 1010.641563 85.717575 
Q 1010.641563 87.717575 1012.641563 87.717575 
z
" style="fill:#ffffff;opacity:0.8;stroke:#cccccc;stroke-linejoin:miter;"/>
    </g>
    <g id="line2d_17">
     <path d="M 1014.641563 48.781638 
L 1034.641562 48.781638 
" style="fill:none;stroke:#b2b2b2;stroke-linecap:square;stroke-width:1.5;"/>
    </g>
    <g id="line2d_18"/>
    <g id="text_17">
     <!-- Ground -->
     <g transform="translate(1042.641562 52.281638)scale(0.1 -0.1)">
      <use xlink:href="#DejaVuSans-71"/>
      <use x="77.490234" xlink:href="#DejaVuSans-114"/>
      <use x="118.572266" xlink:href="#DejaVuSans-111"/>
      <use x="179.753906" xlink:href="#DejaVuSans-117"/>
      <use x="243.132812" xlink:href="#DejaVuSans-110"/>
      <use x="306.511719" xlink:href="#DejaVuSans-100"/>
     </g>
    </g>
    <g id="line2d_19">
     <path d="M 1014.641563 63.459763 
L 1034.641562 63.459763 
" style="fill:none;stroke:#666666;stroke-linecap:square;stroke-width:1.5;"/>
    </g>
    <g id="line2d_20"/>
    <g id="text_18">
     <!-- Wheel -->
     <g transform="translate(1042.641562 66.959763)scale(0.1 -0.1)">
      <use xlink:href="#DejaVuSans-87"/>
      <use x="98.876953" xlink:href="#DejaVuSans-104"/>
      <use x="162.255859" xlink:href="#DejaVuSans-101"/>
      <use x="223.779297" xlink:href="#DejaVuSans-101"/>
      <use x="285.302734" xlink:href="#DejaVuSans-108"/>
     </g>
    </g>
    <g id="line2d_21">
     <path d="M 1014.641563 78.137888 
L 1034.641562 78.137888 
" style="fill:none;stroke:#000000;stroke-linecap:square;stroke-width:1.5;"/>
    </g>
    <g id="line2d_22"/>
    <g id="text_19">
     <!-- Frame -->
     <g transform="translate(1042.641562 81.637888)scale(0.1 -0.1)">
      <use xlink:href="#DejaVuSans-70"/>
      <use x="57.410156" xlink:href="#DejaVuSans-114"/>
      <use x="98.523438" xlink:href="#DejaVuSans-97"/>
      <use x="159.802734" xlink:href="#DejaVuSans-109"/>
      <use x="257.214844" xlink:href="#DejaVuSans-101"/>
     </g>
    </g>
   </g>
  </g>
 </g>
 <defs>
  <clipPath id="p175adbc5b7">
   <rect height="228.9672" width="937.44" x="151.2" y="35.6832"/>
  </clipPath>
 </defs>
</svg>
